<svg width="279" height="173" viewBox="0 0 279 173" fill="none" xmlns="http://www.w3.org/2000/svg">
<path d="M276.6 2.00003C276.6 46.8188 258.73 89.8018 226.921 121.493C195.113 153.185 151.971 170.989 106.986 170.989" stroke="#AF7E41" stroke-width="3"/>
<path d="M2.15551 66.5446C2.15551 94.2451 13.2001 120.811 32.8596 140.398C52.5192 159.985 79.1832 170.989 106.986 170.989" stroke="#AF7E41" stroke-width="3"/>
<path d="M66.9381 1.99999C49.7566 2 33.2788 8.80019 21.1297 20.9046C8.98058 33.009 2.15528 49.4261 2.15528 66.5444" stroke="#AF7E41" stroke-width="3"/>
<path d="M106.987 41.9001C106.987 31.3179 102.767 21.1692 95.2569 13.6865C87.7466 6.20375 77.5603 2 66.9391 2" stroke="#AF7E41" stroke-width="3"/>
<path d="M106.986 41.9028C106.986 48.4388 104.38 54.7071 99.7416 59.3288C95.1028 63.9504 88.8114 66.5469 82.2512 66.5469" stroke="#AF7E41" stroke-width="3"/>
<path d="M66.9395 51.2911C66.9395 53.2945 67.3355 55.2783 68.105 57.1292C68.8745 58.9801 70.0024 60.6619 71.4243 62.0785C72.8461 63.4952 74.5341 64.6189 76.3919 65.3856C78.2497 66.1523 80.2408 66.5469 82.2516 66.5469" stroke="#AF7E41" stroke-width="3"/>
<path d="M66.9392 51.2905C66.9392 50.0576 67.1829 48.8368 67.6565 47.6978C68.13 46.5588 68.8241 45.5238 69.6991 44.6521C70.5741 43.7803 71.6128 43.0888 72.7561 42.617C73.8993 42.1452 75.1246 41.9023 76.362 41.9023" stroke="#AF7E41" stroke-width="3"/>
<path d="M82.251 47.7699C82.251 46.9993 82.0987 46.2363 81.8027 45.5245C81.5067 44.8126 81.0729 44.1658 80.5261 43.6209C79.9792 43.0761 79.33 42.6439 78.6155 42.349C77.901 42.0541 77.1352 41.9023 76.3618 41.9023" stroke="#AF7E41" stroke-width="3"/>
<path d="M82.251 47.7696C82.251 48.7033 81.8787 49.5987 81.216 50.2589C80.5534 50.9191 79.6546 51.29 78.7175 51.29" stroke="#AF7E41" stroke-width="3"/>
<path d="M78.717 47.7694L78.717 51.29" stroke="#AF7E41" stroke-width="3"/>
<path d="M76.3619 47.7715L82.2512 47.7715" stroke="#AF7E41" stroke-width="3"/>
<path d="M78.717 48.9414L76.3613 48.9414" stroke="#AF7E41" stroke-width="3"/>
<path d="M77.5398 48.9414L77.5398 47.7679" stroke="#AF7E41" stroke-width="3"/>
<path d="M76.3616 51.291L76.3616 41.9027" stroke="#AF7E41" stroke-width="3"/>
<path d="M82.2512 51.291L66.9389 51.291" stroke="#AF7E41" stroke-width="3"/>
<path d="M82.251 41.9026L82.251 66.5469" stroke="#AF7E41" stroke-width="3"/>
<path d="M66.9389 41.9023L106.987 41.9023" stroke="#AF7E41" stroke-width="3"/>
<path d="M66.939 66.5469L66.939 2.00234" stroke="#AF7E41" stroke-width="3"/>
<path d="M106.987 66.6045L2.09646 66.6045" stroke="#AF7E41" stroke-width="3"/>
<path d="M106.987 1.99991L106.987 170.989" stroke="#AF7E41" stroke-width="3"/>
<path d="M276.6 2.00171L276.6 171.146" stroke="#AF7E41" stroke-width="3"/>
<path d="M2.15526 2.15714L2.15527 171.146" stroke="#AF7E41" stroke-width="3"/>
<path d="M76.3618 48.9431C76.3618 49.5656 76.61 50.1625 77.0517 50.6026C77.4935 51.0428 78.0927 51.29 78.7174 51.29" stroke="#AF7E41" stroke-width="3"/>
<path d="M76.3616 48.9449C76.3616 48.7908 76.392 48.6382 76.4512 48.4958C76.5104 48.3535 76.5971 48.2241 76.7065 48.1152C76.8159 48.0062 76.9457 47.9198 77.0886 47.8608C77.2315 47.8018 77.3846 47.7715 77.5393 47.7715" stroke="#AF7E41" stroke-width="3"/>
<path d="M78.7148 48.9458C78.7148 48.7917 78.6844 48.6392 78.6252 48.4968C78.566 48.3544 78.4792 48.2251 78.3699 48.1161C78.2605 48.0072 78.1307 47.9207 77.9878 47.8618C77.8449 47.8028 77.6918 47.7725 77.5371 47.7725" stroke="#AF7E41" stroke-width="3"/>
</svg>
