<svg width="32" height="23" viewBox="0 0 32 23" fill="none" xmlns="http://www.w3.org/2000/svg">
<path d="M2.73171 0C1.22509 0 0 1.22509 0 2.73171V19.9024C0 21.4091 1.22509 22.6341 2.73171 22.6341H29.2683C30.7749 22.6341 32 21.4091 32 19.9024V2.73171C32 1.22509 30.7749 0 29.2683 0H2.73171ZM2.73171 0.780488H29.2683C29.6664 0.780488 30.0348 0.897604 30.3415 1.09756L17.3537 14.2317C16.5919 15.0016 15.3827 15.002 14.622 14.2317L1.65854 1.09756C1.96521 0.897604 2.33364 0.780488 2.73171 0.780488ZM1.09756 1.64634L11.0732 11.7561L1.09756 20.9878C0.894029 20.6794 0.780488 20.3043 0.780488 19.9024V2.73171C0.780488 2.3298 0.894029 1.95477 1.09756 1.64634ZM30.9024 1.64634C31.106 1.95477 31.2195 2.3298 31.2195 2.73171V19.9024C31.2195 20.3043 31.106 20.6794 30.9024 20.9878L20.9146 11.7439L30.9024 1.64634ZM20.3659 12.3049L30.3415 21.5366C30.0349 21.7364 29.6662 21.8537 29.2683 21.8537H2.73171C2.3338 21.8537 1.96513 21.7364 1.65854 21.5366L11.622 12.3171L14.061 14.7805C15.1178 15.8507 16.8571 15.8494 17.9146 14.7805L20.3659 12.3049Z" fill="#AF7E41"/>
</svg>
