<svg width="32" height="33" viewBox="0 0 32 33" fill="none" xmlns="http://www.w3.org/2000/svg">
<path d="M31.6761 8.41795L26.9388 6.54657C26.8112 4.88457 26.1045 3.28474 24.8907 2.07095C23.5559 0.736121 21.7728 0 19.872 0C17.9712 0 16.1881 0.736121 14.8533 2.07095C13.5217 3.40251 12.7856 5.21174 12.7823 7.07658L8.43758 5.35896C8.3198 5.31316 8.18567 5.31316 8.06461 5.35896L0.320622 8.41795C0.127594 8.4932 0 8.67968 0 8.88907V31.8822C0 32.0491 0.0817912 32.2061 0.222472 32.301C0.359881 32.3959 0.53655 32.4155 0.69359 32.3533L8.25437 29.3696L15.8152 32.3533C15.9329 32.3991 16.0671 32.3991 16.1848 32.3533L23.7456 29.3696L31.3064 32.3533C31.3653 32.3762 31.4307 32.3893 31.4929 32.3893C31.5943 32.3893 31.6925 32.3599 31.7775 32.301C31.9149 32.2061 32 32.0491 32 31.8822V8.88907C31.9967 8.67968 31.8691 8.4932 31.6761 8.41795ZM15.5698 2.78745C16.7149 1.64237 18.2427 1.01094 19.872 1.01094C21.5013 1.01094 23.0291 1.64237 24.1742 2.78745C25.8428 4.45271 26.3924 6.97188 25.5745 9.19988C25.2833 9.99816 24.3705 11.4475 23.3301 12.9884C23.3269 12.995 23.3236 13.0015 23.317 13.0048C22.5907 14.0779 21.8055 15.1935 21.1218 16.1619C20.6474 16.8359 20.2188 17.4444 19.8687 17.9515C19.5939 17.5524 19.27 17.0878 18.9167 16.5774C17.1402 14.0354 14.1662 9.77896 13.8849 8.13332C13.5479 6.18014 14.1761 4.18117 15.5698 2.78745ZM23.2385 28.483L16.5055 31.1396V14.8696C17.0486 15.6647 17.5917 16.4433 18.0889 17.1565C18.6451 17.9515 19.1261 18.6386 19.4467 19.1326C19.5416 19.2766 19.6986 19.3616 19.8687 19.3616C20.0389 19.3616 20.1992 19.2766 20.2908 19.1326C20.6703 18.5535 21.2624 17.7127 21.9495 16.741C22.365 16.1521 22.8001 15.5338 23.2353 14.9089V28.483H23.2385ZM12.887 8.30672C13.0801 9.43544 14.1891 11.3592 15.4913 13.3549V31.1396L8.75493 28.4797V6.57274L12.8674 8.19875C12.8772 8.23474 12.8805 8.27073 12.887 8.30672ZM1.01094 9.23259L7.74726 6.57274V28.483L1.01094 31.1396V9.23259ZM30.9858 31.1396L24.2495 28.4797V13.4334C25.3029 11.8695 26.2059 10.4169 26.5233 9.54667C26.7523 8.92179 26.8897 8.27727 26.9355 7.63276L30.9825 9.23259V31.1396H30.9858ZM19.872 9.72661C21.4849 9.72661 22.7936 8.41468 22.7936 6.80503C22.7936 5.19211 21.4816 3.88345 19.872 3.88345C18.2623 3.88345 16.9504 5.19538 16.9504 6.80503C16.9504 8.41795 18.2591 9.72661 19.872 9.72661ZM19.872 4.89439C20.9255 4.89439 21.7826 5.75156 21.7826 6.80503C21.7826 7.8585 20.9255 8.71567 19.872 8.71567C18.8185 8.71567 17.9614 7.8585 17.9614 6.80503C17.9614 5.75156 18.8185 4.89439 19.872 4.89439Z" fill="#AF7E41"/>
</svg>
