<svg width="283" height="358" viewBox="0 0 283 358" fill="none" xmlns="http://www.w3.org/2000/svg">
<path d="M6.5 76V63M13 69.5H0H13Z" stroke="#8BD2BD" stroke-miterlimit="10"/>
<path d="M6.5 44V31M13 37.5H0H13Z" stroke="#8BD2BD" stroke-miterlimit="10"/>
<path d="M6.5 13V0M13 6.5H0H13Z" stroke="#8BD2BD" stroke-miterlimit="10"/>
<path d="M6.5 76V63M13 69.5H0H13Z" stroke="#E7E7E7" stroke-width="2" stroke-miterlimit="10"/>
<path d="M6.5 44V31M13 37.5H0H13Z" stroke="#E7E7E7" stroke-width="2" stroke-miterlimit="10"/>
<path d="M6.5 13V0M13 6.5H0H13Z" stroke="#E7E7E7" stroke-width="2" stroke-miterlimit="10"/>
<path d="M156.5 76V63M163 69.5H150H163Z" stroke="#8BD2BD" stroke-miterlimit="10"/>
<path d="M156.5 44V31M163 37.5H150H163Z" stroke="#8BD2BD" stroke-miterlimit="10"/>
<path d="M156.5 13V0M163 6.5H150H163Z" stroke="#8BD2BD" stroke-miterlimit="10"/>
<path d="M156.5 76V63M163 69.5H150H163Z" stroke="#E7E7E7" stroke-width="2" stroke-miterlimit="10"/>
<path d="M156.5 44V31M163 37.5H150H163Z" stroke="#E7E7E7" stroke-width="2" stroke-miterlimit="10"/>
<path d="M156.5 13V0M163 6.5H150H163Z" stroke="#E7E7E7" stroke-width="2" stroke-miterlimit="10"/>
<path d="M6.5 263V250M13 256.5H0H13Z" stroke="#8BD2BD" stroke-miterlimit="10"/>
<path d="M6.5 231V218M13 224.5H0H13Z" stroke="#8BD2BD" stroke-miterlimit="10"/>
<path d="M6.5 200V187M13 193.5H0H13Z" stroke="#8BD2BD" stroke-miterlimit="10"/>
<path d="M6.5 263V250M13 256.5H0H13Z" stroke="#E7E7E7" stroke-width="2" stroke-miterlimit="10"/>
<path d="M6.5 231V218M13 224.5H0H13Z" stroke="#E7E7E7" stroke-width="2" stroke-miterlimit="10"/>
<path d="M6.5 200V187M13 193.5H0H13Z" stroke="#E7E7E7" stroke-width="2" stroke-miterlimit="10"/>
<path d="M156.5 264V251M163 257.5H150H163Z" stroke="#8BD2BD" stroke-miterlimit="10"/>
<path d="M156.5 232V219M163 225.5H150H163Z" stroke="#8BD2BD" stroke-miterlimit="10"/>
<path d="M156.5 201V188M163 194.5H150H163Z" stroke="#8BD2BD" stroke-miterlimit="10"/>
<path d="M156.5 264V251M163 257.5H150H163Z" stroke="#E7E7E7" stroke-width="2" stroke-miterlimit="10"/>
<path d="M156.5 232V219M163 225.5H150H163Z" stroke="#E7E7E7" stroke-width="2" stroke-miterlimit="10"/>
<path d="M156.5 201V188M163 194.5H150H163Z" stroke="#E7E7E7" stroke-width="2" stroke-miterlimit="10"/>
<path d="M6.5 170V157M13 163.5H0H13Z" stroke="#8BD2BD" stroke-miterlimit="10"/>
<path d="M6.5 138V125M13 131.5H0H13Z" stroke="#8BD2BD" stroke-miterlimit="10"/>
<path d="M6.5 107V94M13 100.5H0H13Z" stroke="#8BD2BD" stroke-miterlimit="10"/>
<path d="M6.5 170V157M13 163.5H0H13Z" stroke="#E7E7E7" stroke-width="2" stroke-miterlimit="10"/>
<path d="M6.5 138V125M13 131.5H0H13Z" stroke="#E7E7E7" stroke-width="2" stroke-miterlimit="10"/>
<path d="M6.5 107V94M13 100.5H0H13Z" stroke="#E7E7E7" stroke-width="2" stroke-miterlimit="10"/>
<path d="M156.5 170V157M163 163.5H150H163Z" stroke="#8BD2BD" stroke-miterlimit="10"/>
<path d="M156.5 138V125M163 131.5H150H163Z" stroke="#8BD2BD" stroke-miterlimit="10"/>
<path d="M156.5 107V94M163 100.5H150H163Z" stroke="#8BD2BD" stroke-miterlimit="10"/>
<path d="M156.5 170V157M163 163.5H150H163Z" stroke="#E7E7E7" stroke-width="2" stroke-miterlimit="10"/>
<path d="M156.5 138V125M163 131.5H150H163Z" stroke="#E7E7E7" stroke-width="2" stroke-miterlimit="10"/>
<path d="M156.5 107V94M163 100.5H150H163Z" stroke="#E7E7E7" stroke-width="2" stroke-miterlimit="10"/>
<path d="M6.5 357V344M13 350.5H0H13Z" stroke="#8BD2BD" stroke-miterlimit="10"/>
<path d="M6.5 325V312M13 318.5H0H13Z" stroke="#8BD2BD" stroke-miterlimit="10"/>
<path d="M6.5 294V281M13 287.5H0H13Z" stroke="#8BD2BD" stroke-miterlimit="10"/>
<path d="M6.5 357V344M13 350.5H0H13Z" stroke="#E7E7E7" stroke-width="2" stroke-miterlimit="10"/>
<path d="M6.5 325V312M13 318.5H0H13Z" stroke="#E7E7E7" stroke-width="2" stroke-miterlimit="10"/>
<path d="M6.5 294V281M13 287.5H0H13Z" stroke="#E7E7E7" stroke-width="2" stroke-miterlimit="10"/>
<path d="M156.5 358V345M163 351.5H150H163Z" stroke="#8BD2BD" stroke-miterlimit="10"/>
<path d="M156.5 326V313M163 319.5H150H163Z" stroke="#8BD2BD" stroke-miterlimit="10"/>
<path d="M156.5 295V282M163 288.5H150H163Z" stroke="#8BD2BD" stroke-miterlimit="10"/>
<path d="M156.5 358V345M163 351.5H150H163Z" stroke="#E7E7E7" stroke-width="2" stroke-miterlimit="10"/>
<path d="M156.5 326V313M163 319.5H150H163Z" stroke="#E7E7E7" stroke-width="2" stroke-miterlimit="10"/>
<path d="M156.5 295V282M163 288.5H150H163Z" stroke="#E7E7E7" stroke-width="2" stroke-miterlimit="10"/>
<path d="M36.5 76V63M43 69.5H30H43Z" stroke="#8BD2BD" stroke-miterlimit="10"/>
<path d="M36.5 44V31M43 37.5H30H43Z" stroke="#8BD2BD" stroke-miterlimit="10"/>
<path d="M36.5 13V0M43 6.5H30H43Z" stroke="#8BD2BD" stroke-miterlimit="10"/>
<path d="M36.5 76V63M43 69.5H30H43Z" stroke="#E7E7E7" stroke-width="2" stroke-miterlimit="10"/>
<path d="M36.5 44V31M43 37.5H30H43Z" stroke="#E7E7E7" stroke-width="2" stroke-miterlimit="10"/>
<path d="M36.5 13V0M43 6.5H30H43Z" stroke="#E7E7E7" stroke-width="2" stroke-miterlimit="10"/>
<path d="M186.5 76V63M193 69.5H180H193Z" stroke="#8BD2BD" stroke-miterlimit="10"/>
<path d="M186.5 44V31M193 37.5H180H193Z" stroke="#8BD2BD" stroke-miterlimit="10"/>
<path d="M186.5 13V0M193 6.5H180H193Z" stroke="#8BD2BD" stroke-miterlimit="10"/>
<path d="M186.5 76V63M193 69.5H180H193Z" stroke="#E7E7E7" stroke-width="2" stroke-miterlimit="10"/>
<path d="M186.5 44V31M193 37.5H180H193Z" stroke="#E7E7E7" stroke-width="2" stroke-miterlimit="10"/>
<path d="M186.5 13V0M193 6.5H180H193Z" stroke="#E7E7E7" stroke-width="2" stroke-miterlimit="10"/>
<path d="M36.5 263V250M43 256.5H30H43Z" stroke="#8BD2BD" stroke-miterlimit="10"/>
<path d="M36.5 231V218M43 224.5H30H43Z" stroke="#8BD2BD" stroke-miterlimit="10"/>
<path d="M36.5 200V187M43 193.5H30H43Z" stroke="#8BD2BD" stroke-miterlimit="10"/>
<path d="M36.5 263V250M43 256.5H30H43Z" stroke="#E7E7E7" stroke-width="2" stroke-miterlimit="10"/>
<path d="M36.5 231V218M43 224.5H30H43Z" stroke="#E7E7E7" stroke-width="2" stroke-miterlimit="10"/>
<path d="M36.5 200V187M43 193.5H30H43Z" stroke="#E7E7E7" stroke-width="2" stroke-miterlimit="10"/>
<path d="M186.5 264V251M193 257.5H180H193Z" stroke="#8BD2BD" stroke-miterlimit="10"/>
<path d="M186.5 232V219M193 225.5H180H193Z" stroke="#8BD2BD" stroke-miterlimit="10"/>
<path d="M186.5 201V188M193 194.5H180H193Z" stroke="#8BD2BD" stroke-miterlimit="10"/>
<path d="M186.5 264V251M193 257.5H180H193Z" stroke="#E7E7E7" stroke-width="2" stroke-miterlimit="10"/>
<path d="M186.5 232V219M193 225.5H180H193Z" stroke="#E7E7E7" stroke-width="2" stroke-miterlimit="10"/>
<path d="M186.5 201V188M193 194.5H180H193Z" stroke="#E7E7E7" stroke-width="2" stroke-miterlimit="10"/>
<path d="M66.5 76V63M73 69.5H60H73Z" stroke="#8BD2BD" stroke-miterlimit="10"/>
<path d="M66.5 44V31M73 37.5H60H73Z" stroke="#8BD2BD" stroke-miterlimit="10"/>
<path d="M66.5 13V0M73 6.5H60H73Z" stroke="#8BD2BD" stroke-miterlimit="10"/>
<path d="M66.5 76V63M73 69.5H60H73Z" stroke="#E7E7E7" stroke-width="2" stroke-miterlimit="10"/>
<path d="M66.5 44V31M73 37.5H60H73Z" stroke="#E7E7E7" stroke-width="2" stroke-miterlimit="10"/>
<path d="M66.5 13V0M73 6.5H60H73Z" stroke="#E7E7E7" stroke-width="2" stroke-miterlimit="10"/>
<path d="M216.5 76V63M223 69.5H210H223Z" stroke="#8BD2BD" stroke-miterlimit="10"/>
<path d="M216.5 44V31M223 37.5H210H223Z" stroke="#8BD2BD" stroke-miterlimit="10"/>
<path d="M216.5 13V0M223 6.5H210H223Z" stroke="#8BD2BD" stroke-miterlimit="10"/>
<path d="M216.5 76V63M223 69.5H210H223Z" stroke="#E7E7E7" stroke-width="2" stroke-miterlimit="10"/>
<path d="M216.5 44V31M223 37.5H210H223Z" stroke="#E7E7E7" stroke-width="2" stroke-miterlimit="10"/>
<path d="M216.5 13V0M223 6.5H210H223Z" stroke="#E7E7E7" stroke-width="2" stroke-miterlimit="10"/>
<path d="M66.5 263V250M73 256.5H60H73Z" stroke="#8BD2BD" stroke-miterlimit="10"/>
<path d="M66.5 231V218M73 224.5H60H73Z" stroke="#8BD2BD" stroke-miterlimit="10"/>
<path d="M66.5 200V187M73 193.5H60H73Z" stroke="#8BD2BD" stroke-miterlimit="10"/>
<path d="M66.5 263V250M73 256.5H60H73Z" stroke="#E7E7E7" stroke-width="2" stroke-miterlimit="10"/>
<path d="M66.5 231V218M73 224.5H60H73Z" stroke="#E7E7E7" stroke-width="2" stroke-miterlimit="10"/>
<path d="M66.5 200V187M73 193.5H60H73Z" stroke="#E7E7E7" stroke-width="2" stroke-miterlimit="10"/>
<path d="M216.5 264V251M223 257.5H210H223Z" stroke="#8BD2BD" stroke-miterlimit="10"/>
<path d="M216.5 232V219M223 225.5H210H223Z" stroke="#8BD2BD" stroke-miterlimit="10"/>
<path d="M216.5 201V188M223 194.5H210H223Z" stroke="#8BD2BD" stroke-miterlimit="10"/>
<path d="M216.5 264V251M223 257.5H210H223Z" stroke="#E7E7E7" stroke-width="2" stroke-miterlimit="10"/>
<path d="M216.5 232V219M223 225.5H210H223Z" stroke="#E7E7E7" stroke-width="2" stroke-miterlimit="10"/>
<path d="M216.5 201V188M223 194.5H210H223Z" stroke="#E7E7E7" stroke-width="2" stroke-miterlimit="10"/>
<path d="M96.5 76V63M103 69.5H90H103Z" stroke="#8BD2BD" stroke-miterlimit="10"/>
<path d="M96.5 44V31M103 37.5H90H103Z" stroke="#8BD2BD" stroke-miterlimit="10"/>
<path d="M96.5 13V0M103 6.5H90H103Z" stroke="#8BD2BD" stroke-miterlimit="10"/>
<path d="M96.5 76V63M103 69.5H90H103Z" stroke="#E7E7E7" stroke-width="2" stroke-miterlimit="10"/>
<path d="M96.5 44V31M103 37.5H90H103Z" stroke="#E7E7E7" stroke-width="2" stroke-miterlimit="10"/>
<path d="M96.5 13V0M103 6.5H90H103Z" stroke="#E7E7E7" stroke-width="2" stroke-miterlimit="10"/>
<path d="M246.5 76V63M253 69.5H240H253Z" stroke="#8BD2BD" stroke-miterlimit="10"/>
<path d="M246.5 44V31M253 37.5H240H253Z" stroke="#8BD2BD" stroke-miterlimit="10"/>
<path d="M246.5 13V0M253 6.5H240H253Z" stroke="#8BD2BD" stroke-miterlimit="10"/>
<path d="M246.5 76V63M253 69.5H240H253Z" stroke="#E7E7E7" stroke-width="2" stroke-miterlimit="10"/>
<path d="M246.5 44V31M253 37.5H240H253Z" stroke="#E7E7E7" stroke-width="2" stroke-miterlimit="10"/>
<path d="M246.5 13V0M253 6.5H240H253Z" stroke="#E7E7E7" stroke-width="2" stroke-miterlimit="10"/>
<path d="M96.5 263V250M103 256.5H90H103Z" stroke="#8BD2BD" stroke-miterlimit="10"/>
<path d="M96.5 231V218M103 224.5H90H103Z" stroke="#8BD2BD" stroke-miterlimit="10"/>
<path d="M96.5 200V187M103 193.5H90H103Z" stroke="#8BD2BD" stroke-miterlimit="10"/>
<path d="M96.5 263V250M103 256.5H90H103Z" stroke="#E7E7E7" stroke-width="2" stroke-miterlimit="10"/>
<path d="M96.5 231V218M103 224.5H90H103Z" stroke="#E7E7E7" stroke-width="2" stroke-miterlimit="10"/>
<path d="M96.5 200V187M103 193.5H90H103Z" stroke="#E7E7E7" stroke-width="2" stroke-miterlimit="10"/>
<path d="M246.5 264V251M253 257.5H240H253Z" stroke="#8BD2BD" stroke-miterlimit="10"/>
<path d="M246.5 232V219M253 225.5H240H253Z" stroke="#8BD2BD" stroke-miterlimit="10"/>
<path d="M246.5 201V188M253 194.5H240H253Z" stroke="#8BD2BD" stroke-miterlimit="10"/>
<path d="M246.5 264V251M253 257.5H240H253Z" stroke="#E7E7E7" stroke-width="2" stroke-miterlimit="10"/>
<path d="M246.5 232V219M253 225.5H240H253Z" stroke="#E7E7E7" stroke-width="2" stroke-miterlimit="10"/>
<path d="M246.5 201V188M253 194.5H240H253Z" stroke="#E7E7E7" stroke-width="2" stroke-miterlimit="10"/>
<path d="M126.5 76V63M133 69.5H120H133Z" stroke="#8BD2BD" stroke-miterlimit="10"/>
<path d="M126.5 44V31M133 37.5H120H133Z" stroke="#8BD2BD" stroke-miterlimit="10"/>
<path d="M126.5 13V0M133 6.5H120H133Z" stroke="#8BD2BD" stroke-miterlimit="10"/>
<path d="M126.5 76V63M133 69.5H120H133Z" stroke="#E7E7E7" stroke-width="2" stroke-miterlimit="10"/>
<path d="M126.5 44V31M133 37.5H120H133Z" stroke="#E7E7E7" stroke-width="2" stroke-miterlimit="10"/>
<path d="M126.5 13V0M133 6.5H120H133Z" stroke="#E7E7E7" stroke-width="2" stroke-miterlimit="10"/>
<path d="M276.5 76V63M283 69.5H270H283Z" stroke="#8BD2BD" stroke-miterlimit="10"/>
<path d="M276.5 44V31M283 37.5H270H283Z" stroke="#8BD2BD" stroke-miterlimit="10"/>
<path d="M276.5 13V0M283 6.5H270H283Z" stroke="#8BD2BD" stroke-miterlimit="10"/>
<path d="M276.5 76V63M283 69.5H270H283Z" stroke="#E7E7E7" stroke-width="2" stroke-miterlimit="10"/>
<path d="M276.5 44V31M283 37.5H270H283Z" stroke="#E7E7E7" stroke-width="2" stroke-miterlimit="10"/>
<path d="M276.5 13V0M283 6.5H270H283Z" stroke="#E7E7E7" stroke-width="2" stroke-miterlimit="10"/>
<path d="M126.5 263V250M133 256.5H120H133Z" stroke="#8BD2BD" stroke-miterlimit="10"/>
<path d="M126.5 231V218M133 224.5H120H133Z" stroke="#8BD2BD" stroke-miterlimit="10"/>
<path d="M126.5 200V187M133 193.5H120H133Z" stroke="#8BD2BD" stroke-miterlimit="10"/>
<path d="M126.5 263V250M133 256.5H120H133Z" stroke="#E7E7E7" stroke-width="2" stroke-miterlimit="10"/>
<path d="M126.5 231V218M133 224.5H120H133Z" stroke="#E7E7E7" stroke-width="2" stroke-miterlimit="10"/>
<path d="M126.5 200V187M133 193.5H120H133Z" stroke="#E7E7E7" stroke-width="2" stroke-miterlimit="10"/>
<path d="M276.5 264V251M283 257.5H270H283Z" stroke="#8BD2BD" stroke-miterlimit="10"/>
<path d="M276.5 232V219M283 225.5H270H283Z" stroke="#8BD2BD" stroke-miterlimit="10"/>
<path d="M276.5 201V188M283 194.5H270H283Z" stroke="#8BD2BD" stroke-miterlimit="10"/>
<path d="M276.5 264V251M283 257.5H270H283Z" stroke="#E7E7E7" stroke-width="2" stroke-miterlimit="10"/>
<path d="M276.5 232V219M283 225.5H270H283Z" stroke="#E7E7E7" stroke-width="2" stroke-miterlimit="10"/>
<path d="M276.5 201V188M283 194.5H270H283Z" stroke="#E7E7E7" stroke-width="2" stroke-miterlimit="10"/>
<path d="M36.5 170V157M43 163.5H30H43Z" stroke="#8BD2BD" stroke-miterlimit="10"/>
<path d="M36.5 138V125M43 131.5H30H43Z" stroke="#8BD2BD" stroke-miterlimit="10"/>
<path d="M36.5 107V94M43 100.5H30H43Z" stroke="#8BD2BD" stroke-miterlimit="10"/>
<path d="M36.5 170V157M43 163.5H30H43Z" stroke="#E7E7E7" stroke-width="2" stroke-miterlimit="10"/>
<path d="M36.5 138V125M43 131.5H30H43Z" stroke="#E7E7E7" stroke-width="2" stroke-miterlimit="10"/>
<path d="M36.5 107V94M43 100.5H30H43Z" stroke="#E7E7E7" stroke-width="2" stroke-miterlimit="10"/>
<path d="M186.5 170V157M193 163.5H180H193Z" stroke="#8BD2BD" stroke-miterlimit="10"/>
<path d="M186.5 138V125M193 131.5H180H193Z" stroke="#8BD2BD" stroke-miterlimit="10"/>
<path d="M186.5 107V94M193 100.5H180H193Z" stroke="#8BD2BD" stroke-miterlimit="10"/>
<path d="M186.5 170V157M193 163.5H180H193Z" stroke="#E7E7E7" stroke-width="2" stroke-miterlimit="10"/>
<path d="M186.5 138V125M193 131.5H180H193Z" stroke="#E7E7E7" stroke-width="2" stroke-miterlimit="10"/>
<path d="M186.5 107V94M193 100.5H180H193Z" stroke="#E7E7E7" stroke-width="2" stroke-miterlimit="10"/>
<path d="M36.5 357V344M43 350.5H30H43Z" stroke="#8BD2BD" stroke-miterlimit="10"/>
<path d="M36.5 325V312M43 318.5H30H43Z" stroke="#8BD2BD" stroke-miterlimit="10"/>
<path d="M36.5 294V281M43 287.5H30H43Z" stroke="#8BD2BD" stroke-miterlimit="10"/>
<path d="M36.5 357V344M43 350.5H30H43Z" stroke="#E7E7E7" stroke-width="2" stroke-miterlimit="10"/>
<path d="M36.5 325V312M43 318.5H30H43Z" stroke="#E7E7E7" stroke-width="2" stroke-miterlimit="10"/>
<path d="M36.5 294V281M43 287.5H30H43Z" stroke="#E7E7E7" stroke-width="2" stroke-miterlimit="10"/>
<path d="M186.5 358V345M193 351.5H180H193Z" stroke="#8BD2BD" stroke-miterlimit="10"/>
<path d="M186.5 326V313M193 319.5H180H193Z" stroke="#8BD2BD" stroke-miterlimit="10"/>
<path d="M186.5 295V282M193 288.5H180H193Z" stroke="#8BD2BD" stroke-miterlimit="10"/>
<path d="M186.5 358V345M193 351.5H180H193Z" stroke="#E7E7E7" stroke-width="2" stroke-miterlimit="10"/>
<path d="M186.5 326V313M193 319.5H180H193Z" stroke="#E7E7E7" stroke-width="2" stroke-miterlimit="10"/>
<path d="M186.5 295V282M193 288.5H180H193Z" stroke="#E7E7E7" stroke-width="2" stroke-miterlimit="10"/>
<path d="M66.5 170V157M73 163.5H60H73Z" stroke="#8BD2BD" stroke-miterlimit="10"/>
<path d="M66.5 138V125M73 131.5H60H73Z" stroke="#8BD2BD" stroke-miterlimit="10"/>
<path d="M66.5 107V94M73 100.5H60H73Z" stroke="#8BD2BD" stroke-miterlimit="10"/>
<path d="M66.5 170V157M73 163.5H60H73Z" stroke="#E7E7E7" stroke-width="2" stroke-miterlimit="10"/>
<path d="M66.5 138V125M73 131.5H60H73Z" stroke="#E7E7E7" stroke-width="2" stroke-miterlimit="10"/>
<path d="M66.5 107V94M73 100.5H60H73Z" stroke="#E7E7E7" stroke-width="2" stroke-miterlimit="10"/>
<path d="M216.5 170V157M223 163.5H210H223Z" stroke="#8BD2BD" stroke-miterlimit="10"/>
<path d="M216.5 138V125M223 131.5H210H223Z" stroke="#8BD2BD" stroke-miterlimit="10"/>
<path d="M216.5 107V94M223 100.5H210H223Z" stroke="#8BD2BD" stroke-miterlimit="10"/>
<path d="M216.5 170V157M223 163.5H210H223Z" stroke="#E7E7E7" stroke-width="2" stroke-miterlimit="10"/>
<path d="M216.5 138V125M223 131.5H210H223Z" stroke="#E7E7E7" stroke-width="2" stroke-miterlimit="10"/>
<path d="M216.5 107V94M223 100.5H210H223Z" stroke="#E7E7E7" stroke-width="2" stroke-miterlimit="10"/>
<path d="M66.5 357V344M73 350.5H60H73Z" stroke="#8BD2BD" stroke-miterlimit="10"/>
<path d="M66.5 325V312M73 318.5H60H73Z" stroke="#8BD2BD" stroke-miterlimit="10"/>
<path d="M66.5 294V281M73 287.5H60H73Z" stroke="#8BD2BD" stroke-miterlimit="10"/>
<path d="M66.5 357V344M73 350.5H60H73Z" stroke="#E7E7E7" stroke-width="2" stroke-miterlimit="10"/>
<path d="M66.5 325V312M73 318.5H60H73Z" stroke="#E7E7E7" stroke-width="2" stroke-miterlimit="10"/>
<path d="M66.5 294V281M73 287.5H60H73Z" stroke="#E7E7E7" stroke-width="2" stroke-miterlimit="10"/>
<path d="M216.5 358V345M223 351.5H210H223Z" stroke="#8BD2BD" stroke-miterlimit="10"/>
<path d="M216.5 326V313M223 319.5H210H223Z" stroke="#8BD2BD" stroke-miterlimit="10"/>
<path d="M216.5 295V282M223 288.5H210H223Z" stroke="#8BD2BD" stroke-miterlimit="10"/>
<path d="M216.5 358V345M223 351.5H210H223Z" stroke="#E7E7E7" stroke-width="2" stroke-miterlimit="10"/>
<path d="M216.5 326V313M223 319.5H210H223Z" stroke="#E7E7E7" stroke-width="2" stroke-miterlimit="10"/>
<path d="M216.5 295V282M223 288.5H210H223Z" stroke="#E7E7E7" stroke-width="2" stroke-miterlimit="10"/>
<path d="M96.5 170V157M103 163.5H90H103Z" stroke="#8BD2BD" stroke-miterlimit="10"/>
<path d="M96.5 138V125M103 131.5H90H103Z" stroke="#8BD2BD" stroke-miterlimit="10"/>
<path d="M96.5 107V94M103 100.5H90H103Z" stroke="#8BD2BD" stroke-miterlimit="10"/>
<path d="M96.5 170V157M103 163.5H90H103Z" stroke="#E7E7E7" stroke-width="2" stroke-miterlimit="10"/>
<path d="M96.5 138V125M103 131.5H90H103Z" stroke="#E7E7E7" stroke-width="2" stroke-miterlimit="10"/>
<path d="M96.5 107V94M103 100.5H90H103Z" stroke="#E7E7E7" stroke-width="2" stroke-miterlimit="10"/>
<path d="M246.5 170V157M253 163.5H240H253Z" stroke="#8BD2BD" stroke-miterlimit="10"/>
<path d="M246.5 138V125M253 131.5H240H253Z" stroke="#8BD2BD" stroke-miterlimit="10"/>
<path d="M246.5 107V94M253 100.5H240H253Z" stroke="#8BD2BD" stroke-miterlimit="10"/>
<path d="M246.5 170V157M253 163.5H240H253Z" stroke="#E7E7E7" stroke-width="2" stroke-miterlimit="10"/>
<path d="M246.5 138V125M253 131.5H240H253Z" stroke="#E7E7E7" stroke-width="2" stroke-miterlimit="10"/>
<path d="M246.5 107V94M253 100.5H240H253Z" stroke="#E7E7E7" stroke-width="2" stroke-miterlimit="10"/>
<path d="M96.5 357V344M103 350.5H90H103Z" stroke="#8BD2BD" stroke-miterlimit="10"/>
<path d="M96.5 325V312M103 318.5H90H103Z" stroke="#8BD2BD" stroke-miterlimit="10"/>
<path d="M96.5 294V281M103 287.5H90H103Z" stroke="#8BD2BD" stroke-miterlimit="10"/>
<path d="M96.5 357V344M103 350.5H90H103Z" stroke="#E7E7E7" stroke-width="2" stroke-miterlimit="10"/>
<path d="M96.5 325V312M103 318.5H90H103Z" stroke="#E7E7E7" stroke-width="2" stroke-miterlimit="10"/>
<path d="M96.5 294V281M103 287.5H90H103Z" stroke="#E7E7E7" stroke-width="2" stroke-miterlimit="10"/>
<path d="M246.5 358V345M253 351.5H240H253Z" stroke="#8BD2BD" stroke-miterlimit="10"/>
<path d="M246.5 326V313M253 319.5H240H253Z" stroke="#8BD2BD" stroke-miterlimit="10"/>
<path d="M246.5 295V282M253 288.5H240H253Z" stroke="#8BD2BD" stroke-miterlimit="10"/>
<path d="M246.5 358V345M253 351.5H240H253Z" stroke="#E7E7E7" stroke-width="2" stroke-miterlimit="10"/>
<path d="M246.5 326V313M253 319.5H240H253Z" stroke="#E7E7E7" stroke-width="2" stroke-miterlimit="10"/>
<path d="M246.5 295V282M253 288.5H240H253Z" stroke="#E7E7E7" stroke-width="2" stroke-miterlimit="10"/>
<path d="M126.5 170V157M133 163.5H120H133Z" stroke="#8BD2BD" stroke-miterlimit="10"/>
<path d="M126.5 138V125M133 131.5H120H133Z" stroke="#8BD2BD" stroke-miterlimit="10"/>
<path d="M126.5 107V94M133 100.5H120H133Z" stroke="#8BD2BD" stroke-miterlimit="10"/>
<path d="M126.5 170V157M133 163.5H120H133Z" stroke="#E7E7E7" stroke-width="2" stroke-miterlimit="10"/>
<path d="M126.5 138V125M133 131.5H120H133Z" stroke="#E7E7E7" stroke-width="2" stroke-miterlimit="10"/>
<path d="M126.5 107V94M133 100.5H120H133Z" stroke="#E7E7E7" stroke-width="2" stroke-miterlimit="10"/>
<path d="M276.5 170V157M283 163.5H270H283Z" stroke="#8BD2BD" stroke-miterlimit="10"/>
<path d="M276.5 138V125M283 131.5H270H283Z" stroke="#8BD2BD" stroke-miterlimit="10"/>
<path d="M276.5 107V94M283 100.5H270H283Z" stroke="#8BD2BD" stroke-miterlimit="10"/>
<path d="M276.5 170V157M283 163.5H270H283Z" stroke="#E7E7E7" stroke-width="2" stroke-miterlimit="10"/>
<path d="M276.5 138V125M283 131.5H270H283Z" stroke="#E7E7E7" stroke-width="2" stroke-miterlimit="10"/>
<path d="M276.5 107V94M283 100.5H270H283Z" stroke="#E7E7E7" stroke-width="2" stroke-miterlimit="10"/>
<path d="M126.5 357V344M133 350.5H120H133Z" stroke="#8BD2BD" stroke-miterlimit="10"/>
<path d="M126.5 325V312M133 318.5H120H133Z" stroke="#8BD2BD" stroke-miterlimit="10"/>
<path d="M126.5 294V281M133 287.5H120H133Z" stroke="#8BD2BD" stroke-miterlimit="10"/>
<path d="M126.5 357V344M133 350.5H120H133Z" stroke="#E7E7E7" stroke-width="2" stroke-miterlimit="10"/>
<path d="M126.5 325V312M133 318.5H120H133Z" stroke="#E7E7E7" stroke-width="2" stroke-miterlimit="10"/>
<path d="M126.5 294V281M133 287.5H120H133Z" stroke="#E7E7E7" stroke-width="2" stroke-miterlimit="10"/>
<path d="M276.5 358V345M283 351.5H270H283Z" stroke="#8BD2BD" stroke-miterlimit="10"/>
<path d="M276.5 326V313M283 319.5H270H283Z" stroke="#8BD2BD" stroke-miterlimit="10"/>
<path d="M276.5 295V282M283 288.5H270H283Z" stroke="#8BD2BD" stroke-miterlimit="10"/>
<path d="M276.5 358V345M283 351.5H270H283Z" stroke="#E7E7E7" stroke-width="2" stroke-miterlimit="10"/>
<path d="M276.5 326V313M283 319.5H270H283Z" stroke="#E7E7E7" stroke-width="2" stroke-miterlimit="10"/>
<path d="M276.5 295V282M283 288.5H270H283Z" stroke="#E7E7E7" stroke-width="2" stroke-miterlimit="10"/>
</svg>
