<svg width="800" height="800" viewBox="0 0 800 800" fill="none" xmlns="http://www.w3.org/2000/svg">
<g clip-path="url(#clip0_333_3)">
<rect width="800" height="800" fill="#222222"/>
<path d="M1622.76 1467.63C1405.02 1700.4 922.613 1080.71 395.55 872.617C-131.513 664.525 -844.937 745.203 -907.143 468.788C-969.348 192.374 -263.747 -209.644 96.9632 -454.173C457.673 -698.701 544.319 -748.594 824.264 -704.946C1104.21 -661.298 1274.35 -697.282 1440.7 -244.662" stroke="#2E2E2E" stroke-width="2"/>
<path d="M1558.4 1411.44C1352.13 1631.95 895.107 1044.88 395.784 847.742C-103.539 650.602 -779.414 727.034 -838.346 465.167C-897.277 203.301 -228.813 -177.558 112.913 -409.216C454.638 -640.875 536.723 -688.142 801.935 -646.792C1067.15 -605.441 1228.33 -639.531 1385.93 -210.733" stroke="#2E2E2E" stroke-width="2"/>
<path d="M1494.05 1355.25C1299.23 1563.51 867.601 1009.06 396.018 822.868C-75.5645 636.68 -713.891 708.866 -769.549 461.548C-825.206 214.23 -193.879 -145.471 128.862 -364.259C451.602 -583.048 529.128 -627.689 779.605 -588.636C1030.08 -549.583 1182.31 -581.779 1331.15 -176.803" stroke="#2E2E2E" stroke-width="2"/>
<path d="M1429.69 1299.06C1246.33 1495.07 840.095 973.228 396.253 797.993C-47.5901 622.758 -648.368 690.697 -700.752 457.927C-753.135 225.157 -158.945 -113.385 144.811 -319.303C448.567 -525.222 521.532 -567.237 757.275 -530.481C993.018 -493.725 1136.29 -524.027 1276.38 -142.874" stroke="#2E2E2E" stroke-width="2"/>
<path d="M1365.34 1242.86C1193.44 1426.63 812.589 937.401 396.487 773.118C-19.6157 608.835 -582.845 672.528 -631.955 454.306C-681.064 236.084 -124.01 -81.2987 160.76 -274.347C445.531 -467.396 513.936 -506.785 734.946 -472.327C955.955 -437.868 1090.27 -466.276 1221.61 -108.945" stroke="#2E2E2E" stroke-width="2"/>
<path d="M1300.98 1186.67C1140.54 1358.19 785.083 901.575 396.721 748.244C8.35861 594.913 -517.322 654.36 -563.158 450.686C-608.994 247.012 -89.0764 -49.2116 176.71 -229.39C442.496 -409.569 506.34 -446.332 712.616 -414.171C918.891 -382.009 1044.26 -408.524 1166.83 -75.0143" stroke="#2E2E2E" stroke-width="2"/>
<path d="M1236.63 1130.48C1087.65 1289.74 757.577 865.748 396.955 723.369C36.333 580.99 -451.799 636.191 -494.361 447.065C-536.923 257.94 -54.1424 -17.1254 192.659 -184.434C439.46 -351.743 498.745 -385.88 690.286 -356.016C881.827 -326.152 998.237 -350.772 1112.06 -41.0851" stroke="#2E2E2E" stroke-width="2"/>
<path d="M1172.27 1074.29C1034.75 1221.3 730.071 829.921 397.189 698.495C64.3074 567.069 -386.276 618.023 -425.564 443.446C-464.852 268.868 -19.2084 14.9618 208.608 -139.477C436.425 -293.916 491.149 -325.428 667.956 -297.86C844.764 -270.293 952.219 -293.02 1057.28 -7.15485" stroke="#2E2E2E" stroke-width="2"/>
<path d="M1107.91 1018.1C981.854 1152.86 702.565 794.094 397.424 673.62C92.2817 553.146 -320.753 599.854 -356.767 439.825C-392.781 279.795 15.7256 47.048 224.558 -94.5209C433.39 -236.09 483.553 -264.976 645.627 -239.706C807.7 -214.436 906.201 -235.269 1002.51 26.7744" stroke="#2E2E2E" stroke-width="2"/>
<path d="M1043.56 961.91C928.958 1084.42 675.06 758.267 397.658 648.745C120.256 539.223 -255.23 581.685 -287.97 436.204C-320.71 290.723 50.6597 79.1342 240.507 -49.5648C430.354 -178.264 475.957 -204.524 623.297 -181.551C770.637 -158.578 860.182 -177.517 947.737 60.7036" stroke="#2E2E2E" stroke-width="2"/>
<path d="M979.202 905.719C876.062 1015.98 647.554 722.441 397.892 623.871C148.231 525.301 -189.707 563.517 -219.173 432.584C-248.639 301.651 85.5937 111.221 256.456 -4.60773C427.319 -120.437 468.362 -144.071 600.967 -123.395C733.573 -102.72 814.164 -119.765 892.963 94.6339" stroke="#2E2E2E" stroke-width="2"/>
<path d="M914.847 849.528C823.167 947.535 620.048 686.614 398.126 598.996C176.205 511.379 -124.184 545.348 -150.376 428.963C-176.568 312.578 120.528 143.308 272.406 40.3484C424.283 -62.6108 460.766 -83.6187 578.638 -65.2406C696.509 -46.8625 768.146 -62.0137 838.19 128.563" stroke="#2E2E2E" stroke-width="2"/>
<path d="M850.491 793.338C770.271 879.094 592.542 650.788 398.36 574.122C204.179 497.457 -58.6611 527.181 -81.5789 425.344C-104.497 323.507 155.462 175.395 288.355 85.3054C421.248 -4.78386 453.17 -23.1657 556.308 -7.08493C659.446 8.99589 722.128 -4.26135 783.416 162.493" stroke="#2E2E2E" stroke-width="2"/>
<path d="M786.135 737.146C717.375 810.651 565.036 614.961 398.595 549.248C232.154 483.534 6.86193 509.012 -12.7819 421.723C-32.4258 334.434 190.396 207.481 304.304 130.262C418.213 53.0421 445.574 37.2862 533.978 51.0698C622.382 64.8533 676.11 53.49 728.642 196.423" stroke="#2E2E2E" stroke-width="2"/>
<path d="M721.779 680.955C664.479 742.209 537.53 579.134 398.829 524.373C260.128 469.612 72.3849 490.843 56.0151 418.102C39.6452 345.361 225.33 239.567 320.253 175.218C415.177 110.868 437.979 97.7382 511.648 109.224C585.318 120.711 630.091 111.241 673.868 230.352" stroke="#2E2E2E" stroke-width="2"/>
<path d="M657.423 624.764C611.583 673.768 510.024 543.307 399.063 499.499C288.102 455.69 137.908 472.675 124.812 414.482C111.716 356.29 260.264 271.654 336.203 220.175C412.142 168.695 430.383 158.191 489.319 167.38C548.255 176.569 584.073 168.994 619.095 264.282" stroke="#2E2E2E" stroke-width="2"/>
<path d="M593.067 568.573C558.688 605.326 482.518 507.48 399.297 474.624C316.077 441.767 203.431 454.506 193.609 410.861C183.787 367.217 295.198 303.74 352.152 265.131C409.106 226.521 422.787 218.643 466.989 225.535C511.191 232.427 538.055 226.745 564.321 298.211" stroke="#2E2E2E" stroke-width="2"/>
<path d="M528.712 512.383C505.792 536.884 455.012 471.654 399.532 449.75C344.051 427.845 268.954 436.338 262.406 407.242C255.858 378.145 330.132 335.828 368.101 310.088C406.071 284.348 415.191 279.096 444.659 283.691C474.127 288.285 492.036 284.497 509.547 332.142" stroke="#2E2E2E" stroke-width="2"/>
<path d="M464.356 456.191C452.896 468.442 427.506 435.827 399.766 424.875C372.026 413.923 334.477 418.169 331.203 403.621C327.929 389.073 365.066 367.914 384.051 355.044C403.035 342.174 407.596 339.548 422.33 341.845C437.064 344.143 446.018 342.249 454.774 366.071" stroke="#2E2E2E" stroke-width="2"/>
</g>
<defs>
<clipPath id="clip0_333_3">
<rect width="800" height="800" fill="white"/>
</clipPath>
</defs>
</svg>
