<svg  viewBox="0 0 40 40" fill="none" xmlns="http://www.w3.org/2000/svg">
<path d="M4.34818 36.5217C4.12209 36.5217 3.9047 36.4348 3.73079 36.2696C3.39166 35.9304 3.39166 35.3826 3.73079 35.0435L15.9047 22.8696C16.2438 22.5304 16.7917 22.5304 17.1308 22.8696C17.4699 23.2087 17.4699 23.7565 17.1308 24.0957L4.95688 36.2696C4.80035 36.4348 4.57427 36.5217 4.34818 36.5217Z" fill="white"/>
<path d="M23.4787 36.5217C23.2526 36.5217 23.0352 36.4348 22.8613 36.2696C22.5222 35.9304 22.5222 35.3826 22.8613 35.0435L35.0352 22.8696C35.3743 22.5304 35.9222 22.5304 36.2613 22.8696C36.6004 23.2087 36.6004 23.7565 36.2613 24.0957L24.0874 36.2696C23.9308 36.4348 23.7048 36.5217 23.4787 36.5217Z" fill="white"/>
<path d="M16.5221 36.5217C16.296 36.5217 16.0786 36.4348 15.9047 36.2696L3.73079 24.0957C3.39166 23.7565 3.39166 23.2087 3.73079 22.8696C4.06992 22.5304 4.61775 22.5304 4.95688 22.8696L17.1308 35.0435C17.4699 35.3826 17.4699 35.9304 17.1308 36.2696C16.9743 36.4348 16.7482 36.5217 16.5221 36.5217Z" fill="white"/>
<path d="M10.4351 17.3913C9.95686 17.3913 9.56555 17 9.56555 16.5218V4.34784C9.56555 3.86958 9.95686 3.47827 10.4351 3.47827C10.9134 3.47827 11.3047 3.86958 11.3047 4.34784V16.5218C11.3047 17 10.9221 17.3913 10.4351 17.3913Z" fill="white"/>
<path d="M16.5219 11.3043H4.34796C3.8697 11.3043 3.47839 10.913 3.47839 10.4348C3.47839 9.95652 3.8697 9.56522 4.34796 9.56522H16.5219C17.0001 9.56522 17.3914 9.95652 17.3914 10.4348C17.3914 10.913 17.0088 11.3043 16.5219 11.3043Z" fill="white"/>
<path d="M35.6524 11.3043H23.4785C23.0002 11.3043 22.6089 10.913 22.6089 10.4348C22.6089 9.95652 23.0002 9.56522 23.4785 9.56522H35.6524C36.1306 9.56522 36.5219 9.95652 36.5219 10.4348C36.5219 10.913 36.1393 11.3043 35.6524 11.3043Z" fill="white"/>
<path d="M25.2176 27.8261C23.7828 27.8261 22.6089 26.6522 22.6089 25.2174C22.6089 23.7826 23.7828 22.6087 25.2176 22.6087C26.6524 22.6087 27.8263 23.7826 27.8263 25.2174C27.8263 26.6522 26.6611 27.8261 25.2176 27.8261ZM25.2176 24.3478C24.7393 24.3478 24.348 24.7391 24.348 25.2174C24.348 25.6957 24.7393 26.087 25.2176 26.087C25.6958 26.087 26.0871 25.6957 26.0871 25.2174C26.0871 24.7391 25.7045 24.3478 25.2176 24.3478Z" fill="white"/>
<path d="M33.9131 36.5217C32.4784 36.5217 31.3044 35.3478 31.3044 33.913C31.3044 32.4782 32.4784 31.3043 33.9131 31.3043C35.3479 31.3043 36.5218 32.4782 36.5218 33.913C36.5218 35.3478 35.3566 36.5217 33.9131 36.5217ZM33.9131 33.0435C33.4349 33.0435 33.0436 33.4348 33.0436 33.913C33.0436 34.3913 33.4349 34.7826 33.9131 34.7826C34.3914 34.7826 34.7827 34.3913 34.7827 33.913C34.7827 33.4348 34.4001 33.0435 33.9131 33.0435Z" fill="white"/>
<path d="M20 20.8696H0.869565C0.391304 20.8696 0 20.4783 0 20V0.869565C0 0.391304 0.391304 0 0.869565 0H20C20.4783 0 20.8696 0.391304 20.8696 0.869565V20C20.8696 20.4783 20.487 20.8696 20 20.8696ZM1.73913 19.1304H19.1304V1.73913H1.73913V19.1304Z" fill="white"/>
<path d="M39.1302 20.8696H19.9998C19.5216 20.8696 19.1302 20.4783 19.1302 20V0.869565C19.1302 0.391304 19.5216 0 19.9998 0H39.1302C39.6085 0 39.9998 0.391304 39.9998 0.869565V20C39.9998 20.4783 39.6172 20.8696 39.1302 20.8696ZM20.8694 19.1304H38.2607V1.73913H20.8694V19.1304Z" fill="white"/>
<path d="M19.9999 40H0.869443C0.391182 40 -0.00012207 39.6087 -0.00012207 39.1304V20C-0.00012207 19.5218 0.391182 19.1304 0.869443 19.1304H19.9999C20.4781 19.1304 20.8694 19.5218 20.8694 20V39.1304C20.8694 39.6087 20.4868 40 19.9999 40ZM1.73901 38.2609H19.1303V20.8696H1.73901V38.2609Z" fill="white"/>
<path d="M39.1302 40H19.9998C19.5216 40 19.1302 39.6087 19.1302 39.1304V20C19.1302 19.5218 19.5216 19.1304 19.9998 19.1304H39.1302C39.6085 19.1304 39.9998 19.5218 39.9998 20V39.1304C39.9998 39.6087 39.6172 40 39.1302 40ZM20.8694 38.2609H38.2607V20.8696H20.8694V38.2609Z" fill="white"/>
</svg>
