<svg  viewBox="0 0 40 40" fill="none" xmlns="http://www.w3.org/2000/svg">
<path d="M38.7835 28.8555C37.4402 26.7759 35.3625 25.1842 32.6072 24.1224C30.2933 23.2279 28.1387 23.8748 26.2094 26.0367C25.5125 26.8151 25.0208 26.8636 24.107 26.2413C20.0816 23.5048 16.6002 20.0226 13.7607 15.8917C13.106 14.9396 13.1591 14.417 13.9915 13.6559C16.6771 11.198 17.0114 8.71909 15.0765 5.61978C14.0565 3.98698 12.9155 2.6027 11.6867 1.50534C9.47806 -0.465539 6.80061 -0.503915 4.51965 1.40666C0.674707 4.62292 -1.08065 6.09125 0.693937 12.5238C2.1865 17.9339 5.34102 22.9675 10.6245 28.3639C16.2147 34.0737 21.5367 37.5366 27.3705 39.2626C28.2559 39.5249 29.1707 39.6638 30.0562 39.7972C30.4526 39.8575 30.85 39.9178 31.2447 39.9899C31.285 39.9963 31.3244 40 31.3647 40C31.3766 40 31.3885 40 31.3995 39.9991C34.5393 39.8355 39.3128 36.2446 39.712 32.9324C39.8759 31.5792 39.5106 29.9784 38.7835 28.8555ZM38.3888 32.7744C38.1032 35.1436 34.1483 38.465 31.4059 38.6632C31.0249 38.5965 30.6431 38.5381 30.2594 38.4796C29.3804 38.3462 28.5508 38.2201 27.7523 37.9834C22.1447 36.3251 17.0077 32.9717 11.5814 27.431C6.46364 22.2027 3.41351 17.3537 1.98321 12.1683C0.436631 6.56181 1.58215 5.60242 5.37947 2.42727C6.25395 1.69539 7.16414 1.32899 8.06791 1.32899C8.99916 1.32899 9.92491 1.71915 10.7966 2.49671C11.9312 3.51093 12.9906 4.79744 13.9429 6.32425C15.5353 8.87351 15.2954 10.6534 13.0895 12.6727C11.3497 14.2644 12.0108 15.7026 12.6601 16.6455C15.5939 20.9135 19.1925 24.5126 23.3552 27.3424C24.281 27.9737 25.6938 28.6197 27.2056 26.9239C28.7486 25.1942 30.3565 24.6844 32.1256 25.3651C34.6117 26.3227 36.4732 27.7407 37.6609 29.5773C38.2121 30.4289 38.5115 31.7437 38.3888 32.7744Z"/>
<path d="M21.8003 11.1121C21.76 11.4776 22.0238 11.8074 22.39 11.8495C23.8185 12.0094 25.1123 12.6316 26.1306 13.6486C27.2267 14.7432 27.8768 16.1951 27.9647 17.7356C27.9839 18.091 28.2788 18.3651 28.6313 18.3651C28.6432 18.3651 28.656 18.3642 28.6688 18.3642C29.037 18.3441 29.3181 18.0289 29.2979 17.6625C29.1935 15.794 28.4033 14.0341 27.0756 12.7065C25.8577 11.4913 24.2461 10.7165 22.5393 10.5246C22.1776 10.4862 21.8415 10.7466 21.8003 11.1121Z" />
<path d="M22.0431 4.33236C25.942 3.8289 29.7787 5.13643 32.5596 7.91045C35.0732 10.4177 36.411 13.8889 36.2343 17.4341C36.215 17.8014 36.4989 18.1139 36.867 18.1331C36.8789 18.134 36.8908 18.134 36.9009 18.134C37.2543 18.134 37.5501 17.8571 37.5675 17.5008C37.7644 13.58 36.2837 9.74153 33.5046 6.96842C30.4298 3.902 26.1948 2.45925 21.8737 3.01022C21.5074 3.05682 21.2492 3.39124 21.2959 3.75581C21.3407 4.12129 21.6814 4.36708 22.0431 4.33236Z" />
</svg>
