<svg  viewBox="0 0 44 40" fill="none" xmlns="http://www.w3.org/2000/svg">
<path d="M17.0291 21.3923C16.2086 21.3923 15.3805 20.7609 15.3805 19.3505V9.26094C15.3805 7.85003 16.2086 7.21906 17.0296 7.21906C17.4615 7.21906 17.9114 7.37705 18.3663 7.68953L25.2388 12.4118C25.937 12.8913 26.3367 13.5814 26.3372 14.3052C26.3372 15.0285 25.9365 15.7191 25.2388 16.1991L18.3663 20.9209C17.9119 21.2339 17.4615 21.3923 17.0291 21.3923ZM17.0296 8.47297C16.673 8.47297 16.6344 9.0242 16.6344 9.26094V19.3505C16.6344 19.5877 16.673 20.1384 17.0291 20.1384C17.127 20.1384 17.3386 20.1063 17.6561 19.8876L24.5286 15.1659C24.8862 14.9201 25.0833 14.6142 25.0833 14.3052C25.0828 13.9962 24.8857 13.6908 24.5286 13.445L17.6561 8.72275C17.3391 8.50507 17.1275 8.47297 17.0296 8.47297Z" fill="white"/>
<path d="M40.6917 10.6433H38.7501V5.36376C38.7501 2.40652 36.3436 0 33.3863 0H5.36376C2.40652 0 0 2.40652 0 5.36376V34.5414C0 34.8399 0.210157 35.0962 0.50257 35.1559C0.544201 35.1649 0.585831 35.1684 0.627461 35.1684C0.874733 35.1684 1.10495 35.0209 1.20426 34.7857C1.21881 34.7506 2.69342 31.3068 5.32765 28.6014C6.00627 28.6034 8.20765 28.6059 15.3806 28.6079V30.7235C15.3806 32.5798 17.3783 34.09 19.834 34.09H30.5309L35.7618 39.7969C35.8831 39.9293 36.0517 40 36.2242 40C36.3004 40 36.3777 39.9865 36.4514 39.9574C36.6922 39.8636 36.8512 39.6319 36.8512 39.373V34.0905H39.4337C41.8894 34.0905 43.8871 32.0928 43.8871 29.6371V15.0967C43.8871 12.641 42.4537 10.6433 40.6917 10.6433ZM1.25392 5.36376C1.25392 3.09718 3.09768 1.25392 5.36376 1.25392H33.3858C35.6524 1.25392 37.4957 3.09768 37.4957 5.36376V23.2471C37.4957 25.5137 35.6519 27.357 33.3858 27.357C33.1461 27.357 12.6601 27.355 6.71398 27.351C7.8736 26.4431 9.06734 25.8453 10.2781 25.5719C10.6162 25.4957 10.8278 25.1601 10.7516 24.8221C10.6749 24.484 10.3398 24.2724 10.0018 24.3486C8.13291 24.7709 6.32376 25.8413 4.62395 27.5295C3.15536 28.9891 2.02332 30.6523 1.25292 31.9649V5.36376H1.25392ZM42.6332 29.6371C42.6332 31.4016 41.1982 32.8366 39.4337 32.8366H36.2242C35.8781 32.8366 35.5972 33.1175 35.5972 33.4636V37.761L28.97 30.5314C28.7353 30.2766 28.3396 30.2591 28.0838 30.4928C27.8285 30.727 27.8114 31.1238 28.0451 31.3791L29.3813 32.8366H19.834C18.0996 32.8366 16.6345 31.8691 16.6345 30.724V28.6089C20.6601 28.6099 26.0755 28.6109 33.3858 28.6114C36.3431 28.6114 38.7496 26.2049 38.7496 23.2477V11.8972H40.6912C41.7439 11.8972 42.6327 13.3623 42.6327 15.0967L42.6332 29.6371Z" fill="white"/>
</svg>
