<svg width="300" height="300" viewBox="0 0 300 300" fill="none" xmlns="http://www.w3.org/2000/svg">
<rect width="300" height="300" fill="white"/>
<path d="M240.662 149.428C240.058 149.514 239.604 149.994 239.604 150.624V151.82C239.604 152.46 240.058 153.015 240.581 153.015L241.487 153.176C241.638 153.731 241.789 154.211 242.091 154.692L241.487 155.407C241.185 155.887 241.185 156.603 241.558 157.008L242.383 157.884C242.756 158.364 243.44 158.439 243.893 158.044L244.568 157.489C245.021 157.809 245.544 158.044 246.078 158.204L246.148 159.08C246.229 159.72 246.752 160.201 247.276 160.201H248.403C249.007 160.201 249.531 159.72 249.611 159.165L249.682 158.29C250.286 158.129 250.809 157.894 251.343 157.574L251.947 158.129C252.4 158.535 253.074 158.535 253.457 158.055L254.282 157.254C254.735 156.773 254.735 156.133 254.433 155.578L253.91 154.937C254.212 154.382 254.433 153.816 254.584 153.261L255.339 153.186C255.943 153.101 256.396 152.631 256.396 151.991V150.795C256.396 150.154 256.024 149.674 255.42 149.599L254.665 149.439C254.514 148.884 254.363 148.329 254.061 147.763L254.514 147.208C254.886 146.727 254.816 146.012 254.443 145.606L253.618 144.731C253.245 144.25 252.561 144.25 252.108 144.571L251.584 145.051C251.061 144.731 250.527 144.411 249.923 144.25L249.853 143.535C249.772 142.894 249.319 142.414 248.725 142.414H247.598C246.994 142.414 246.541 142.894 246.47 143.45L246.319 144.25C245.796 144.411 245.192 144.645 244.658 144.966L244.054 144.485C243.601 144.09 242.997 144.09 242.544 144.56L241.719 145.435C241.336 145.83 241.266 146.471 241.648 147.037L242.101 147.677C241.799 148.233 241.578 148.798 241.497 149.354L240.662 149.428ZM248.121 148.072C249.782 148.072 251.061 149.503 251.061 151.265C251.061 153.015 249.702 154.457 248.051 154.382C246.39 154.382 245.041 152.941 245.041 151.19C245.101 149.428 246.46 148.072 248.121 148.072Z" fill="#E7E7E7"/>
<path d="M240.662 63.1773C240.058 63.2627 239.604 63.7324 239.604 64.373V65.5687C239.604 66.2093 240.058 66.6897 240.581 66.7644L241.487 66.9246C241.558 67.4797 241.789 67.9602 242.091 68.4406L241.487 69.1559C241.105 69.6363 241.185 70.3516 241.558 70.7573L242.383 71.6328C242.756 72.1132 243.44 72.1132 243.893 71.7929L244.568 71.2378C245.021 71.558 245.544 71.7929 246.078 71.9531L246.148 72.8285C246.229 73.4691 246.672 73.9495 247.276 73.9495H248.403C249.007 73.9495 249.531 73.4691 249.611 72.9139L249.682 72.0385C250.286 71.8783 250.809 71.6328 251.343 71.3232L251.947 71.8783C252.4 72.284 253.074 72.284 253.457 71.7929L254.282 70.9175C254.735 70.5225 254.735 69.8819 254.433 69.316L253.91 68.6755C254.212 68.1203 254.433 67.5545 254.584 66.9993L255.339 66.9139C255.943 66.8285 256.396 66.3588 256.396 65.7182V64.5225C256.396 63.8819 255.943 63.3267 255.42 63.3267L254.665 63.1773C254.514 62.6221 254.292 62.0563 254.061 61.5011L254.514 60.9459C254.886 60.4655 254.816 59.7502 254.443 59.3445L253.618 58.4691C253.245 57.9886 252.561 57.9139 252.108 58.3089L251.584 58.7894C251.061 58.4691 250.527 58.1488 249.923 57.9886L249.853 57.2733C249.772 56.6328 249.319 56.1523 248.725 56.1523H247.598C246.994 56.1523 246.541 56.6328 246.47 57.1879L246.319 57.9886C245.715 58.1488 245.192 58.3837 244.658 58.7039L244.054 58.2235C243.601 57.8285 242.927 57.8285 242.544 58.3089L241.719 59.1096C241.266 59.5901 241.266 60.2306 241.648 60.7858L242.101 61.4264C241.799 61.9815 241.578 62.5474 241.427 63.1025L240.662 63.1773ZM248.121 61.8214C249.702 61.8214 251.061 63.2627 251.061 65.0136C251.061 66.7751 249.702 68.2057 248.051 68.131C246.39 68.131 245.041 66.6897 245.041 64.9388C245.101 63.1773 246.46 61.8214 248.121 61.8214Z" fill="#E7E7E7"/>
<path d="M219.048 105.989C218.293 106.064 217.618 106.79 217.618 107.591V109.352C217.618 110.153 218.222 110.868 218.977 111.029L220.185 111.189C220.417 111.904 220.638 112.63 221.011 113.345L220.256 114.306C219.732 114.947 219.803 115.908 220.336 116.538L221.464 117.733C222.068 118.374 222.974 118.449 223.578 117.893L224.484 117.093C225.158 117.573 225.913 117.893 226.588 118.128L226.739 119.409C226.809 120.21 227.494 120.851 228.32 120.851L229.9 120.936C230.655 120.936 231.41 120.296 231.481 119.42L231.632 118.224C232.387 118.064 233.142 117.744 233.887 117.264L234.793 118.064C235.397 118.619 236.303 118.545 236.897 117.979L238.024 116.783C238.548 116.142 238.628 115.182 238.175 114.552L237.501 113.591C237.873 112.876 238.256 112.075 238.407 111.274L239.464 111.189C240.289 111.029 240.893 110.388 240.893 109.513V107.836C240.964 106.961 240.37 106.235 239.534 106.16L238.558 105.989C238.336 105.189 238.034 104.388 237.652 103.673L238.326 102.797C238.779 102.157 238.779 101.196 238.175 100.566L237.048 99.3703C236.524 98.7297 235.618 98.7297 235.014 99.2101L234.189 99.8507C233.514 99.3703 232.759 99.05 231.934 98.8151L231.853 97.7795C231.702 96.9041 231.098 96.2635 230.273 96.2635H228.692C227.866 96.1781 227.182 96.8187 227.111 97.7048L226.96 98.7404C226.135 98.9859 225.309 99.3062 224.554 99.776L223.799 99.0607C223.195 98.5802 222.289 98.5802 221.695 99.2208L220.568 100.342C219.964 100.982 219.893 101.943 220.417 102.573L221.091 103.534C220.719 104.249 220.417 105.05 220.185 105.851L219.048 105.989ZM229.366 104.068C231.702 104.068 233.504 106.064 233.504 108.541C233.434 110.943 231.541 112.854 229.286 112.854C226.95 112.854 225.148 110.858 225.148 108.381C225.229 105.989 227.111 103.993 229.366 104.068Z" fill="#E7E7E7"/>
<path fill-rule="evenodd" clip-rule="evenodd" d="M263.483 233.119C263.403 231.923 263.403 230.162 263.554 229.447C264.53 225.048 262.95 220.5 259.718 217.233L257.614 226.82C257.312 228.101 256.104 228.902 254.906 228.582C253.698 228.261 252.943 226.98 253.245 225.71C254 222.358 254.755 219.005 255.5 215.642C256.023 213.411 254.745 211.254 252.641 210.689C250.607 210.208 248.503 211.564 248.05 213.721C247.295 217.073 246.621 220.511 245.866 223.863C245.564 225.144 244.356 225.945 243.158 225.699C241.95 225.379 241.195 224.098 241.507 222.827L243.54 213.56C243.621 213.475 236.987 215.557 235.487 222.507C235.336 223.148 234.581 224.589 233.906 225.785L232.547 225.464C231.872 225.304 231.188 225.785 231.037 226.5C230.886 227.301 231.339 228.016 232.013 228.176L264.168 236.162C264.842 236.322 265.527 235.842 265.678 235.126C265.829 234.326 265.456 233.61 264.772 233.45L263.483 233.119Z" fill="#E7E7E7"/>
<path d="M121.981 55.5119L118.588 49.7575C119.192 49.3518 119.796 48.9567 120.319 48.5617C121.83 47.6863 122.876 47.1204 123.561 47.4407C123.863 46.9603 124.236 46.64 124.538 46.4051L125.293 45.9247C125.816 45.5297 126.35 45.4443 126.873 45.4443C126.954 45.4443 127.095 45.3696 127.175 45.2841L127.477 45.124H127.558L127.86 44.9639C128.081 44.8891 128.313 44.8037 128.534 44.729C128.605 44.729 128.685 44.6436 128.756 44.6436L128.987 44.5688C129.209 44.4834 129.44 44.4087 129.742 44.4087C130.044 44.3233 130.417 44.2486 130.719 44.2486H130.87C130.94 44.2486 131.091 44.1738 131.242 44.1738L131.615 44.2486C131.917 44.2486 132.219 44.2486 132.44 44.2486L132.591 44.334C132.813 44.334 133.044 44.4194 133.266 44.4941C133.346 44.4941 133.346 44.4941 133.487 44.4941L133.568 44.5795C133.638 44.5795 133.789 44.5795 133.87 44.6543L134.172 44.8144C134.252 44.8144 134.323 44.8144 134.393 44.8998C134.474 44.8998 134.625 44.9745 134.776 45.0599L135.531 45.455C135.752 45.6151 135.833 45.85 135.752 46.1703C135.752 46.2557 135.601 46.4051 135.531 46.4906C135.45 46.4906 135.309 46.576 135.229 46.576L134.403 46.4906C134.323 46.4906 134.252 46.4906 134.101 46.4906C134.021 46.4906 133.95 46.4906 133.95 46.4906H133.578H133.497C133.427 46.576 133.427 46.576 133.346 46.576C133.266 46.576 133.195 46.576 133.125 46.576C132.974 46.6614 132.903 46.6614 132.752 46.6614C132.682 46.7361 132.601 46.7361 132.601 46.7361C132.38 46.8215 132.299 46.8215 132.148 46.8962L131.776 47.0564C131.776 47.1311 131.695 47.1311 131.625 47.1311C131.544 47.2165 131.544 47.2165 131.474 47.2165C131.323 47.3767 131.172 47.4514 131.021 47.5368L130.94 47.6222C130.87 47.697 130.719 47.7824 130.638 47.9425C130.568 47.9425 130.487 48.0172 130.487 48.0172C130.417 48.1027 130.336 48.1027 130.336 48.1774C130.185 48.2521 130.105 48.3375 130.034 48.4977L129.883 48.6578L129.732 48.8927C129.662 48.9674 129.581 49.0528 129.581 49.1276C129.511 49.1276 129.511 49.213 129.43 49.213C129.43 49.2984 129.43 49.2984 129.35 49.3731C129.35 49.3731 129.35 49.4585 129.279 49.5333C129.35 49.6934 129.501 49.8535 129.501 49.9283L133.034 55.7575V55.8322L136.578 59.6649C136.648 59.7397 136.648 59.8251 136.729 59.8998L144.189 72.3589C145.014 73.7148 144.571 75.551 143.283 76.4372C141.923 77.3126 140.192 76.9176 139.366 75.5617L131.987 63.1027C131.907 62.9425 131.836 62.8571 131.766 62.697L130.105 57.8286L126.561 51.9247C126.491 51.8393 126.491 51.7646 126.41 51.6898C126.33 51.6898 126.189 51.7753 126.108 51.7753C126.108 52.576 124.9 53.4514 123.551 54.4123C123.038 54.7966 122.504 55.1169 121.981 55.5119Z" fill="#E7E7E7"/>
<path d="M96.8325 192.315V175.949H95.6245V171.476L96.752 165.166H99.158L100.215 171.476V175.949H99.007V192.315H101.564C102.017 192.315 102.47 192.721 102.47 193.276V193.992C102.47 194.472 102.017 194.952 101.564 194.952H100.658L101.333 203.013C101.333 203.493 101.413 204.369 101.413 204.935V219.55C101.413 220.106 100.96 220.511 100.507 220.511H95.403C94.8795 220.511 94.497 220.116 94.497 219.55V204.614C94.497 204.134 94.497 203.259 94.5674 202.693L95.2419 194.942H94.3359C93.8124 194.942 93.3594 194.461 93.3594 193.981V193.266C93.3594 192.711 93.8124 192.305 94.3359 192.305H96.8325V192.315Z" fill="#E7E7E7"/>
<path fill-rule="evenodd" clip-rule="evenodd" d="M202.406 101.355C202.326 100.159 202.326 98.3972 202.477 97.6819C203.453 93.2086 201.873 88.7353 198.641 85.4684L196.537 95.0556C196.235 96.3368 195.027 97.1268 193.829 96.8172C192.621 96.4969 191.866 95.2158 192.168 93.9453C192.923 90.593 193.749 87.2407 194.423 83.8029C194.947 81.6464 193.668 79.415 191.564 78.9346C189.531 78.4542 187.427 79.8101 186.973 81.9666C186.218 85.319 185.544 88.7567 184.789 92.109C184.487 93.3901 183.279 94.1802 182.081 93.8599C180.873 93.625 180.128 92.2585 180.42 90.988L182.453 81.7211C182.524 81.7211 175.9 83.7923 174.4 90.7424C174.249 91.383 173.494 92.8243 172.819 94.02L171.46 93.6997C170.786 93.5396 170.101 94.02 169.95 94.7353C169.799 95.4506 170.252 96.2513 170.927 96.4115L203.081 104.397C203.755 104.557 204.44 104.077 204.591 103.276C204.742 102.561 204.369 101.835 203.685 101.675L202.406 101.355Z" fill="#E7E7E7"/>
<path d="M154.437 125.312C153.682 125.398 153.078 126.113 153.078 126.914L153.008 128.59C153.008 129.465 153.612 130.191 154.437 130.266L155.565 130.426C155.796 131.227 156.088 131.942 156.39 132.657L155.635 133.618C155.182 134.259 155.182 135.22 155.786 135.85L156.843 137.045C157.447 137.686 158.353 137.686 158.947 137.205L159.924 136.405C160.598 136.8 161.283 137.205 162.028 137.366L162.108 138.721C162.189 139.522 162.864 140.163 163.689 140.163L165.27 140.237C166.095 140.237 166.78 139.597 166.85 138.721L167.001 137.526C167.827 137.291 168.582 136.971 169.256 136.565L170.162 137.366C170.766 137.846 171.672 137.846 172.266 137.205L173.394 136.084C173.998 135.444 173.998 134.483 173.545 133.842L172.87 132.882C173.243 132.166 173.625 131.366 173.847 130.565L174.904 130.405C175.659 130.33 176.263 129.604 176.263 128.803L176.343 127.127C176.343 126.252 175.739 125.526 174.914 125.366L173.937 125.28C173.706 124.405 173.414 123.679 173.031 122.889L173.706 122.088C174.159 121.447 174.159 120.487 173.635 119.857L172.508 118.661C171.904 118.02 170.998 117.946 170.394 118.501L169.639 119.141C168.884 118.661 168.129 118.341 167.303 118.106L167.223 116.985C167.152 116.184 166.468 115.543 165.642 115.543L164.062 115.469C163.236 115.469 162.551 116.109 162.481 116.985L162.33 118.02C161.504 118.266 160.749 118.576 159.994 119.056L159.169 118.341C158.565 117.785 157.659 117.86 157.065 118.415L155.937 119.611C155.333 120.252 155.333 121.213 155.786 121.853L156.461 122.814C156.088 123.529 155.786 124.33 155.555 125.131L154.437 125.312ZM164.756 123.39C167.092 123.39 168.894 125.387 168.894 127.778C168.894 130.255 166.941 132.166 164.676 132.166C162.41 132.166 160.538 130.17 160.608 127.693C160.619 125.312 162.491 123.316 164.756 123.39Z" fill="#E7E7E7"/>
<path d="M189.43 250.843C188.674 250.929 188.07 251.644 188.07 252.445L188 254.121C188 254.996 188.604 255.722 189.43 255.797L190.557 255.957C190.789 256.758 191.081 257.473 191.383 258.189L190.628 259.149C190.174 259.79 190.174 260.751 190.779 261.381L191.836 262.577C192.44 263.217 193.346 263.217 193.94 262.737L194.916 261.936C195.591 262.331 196.275 262.737 197.02 262.897L197.101 264.253C197.181 265.053 197.856 265.694 198.681 265.694L200.262 265.769C201.087 265.769 201.772 265.128 201.842 264.253L201.993 263.057C202.819 262.822 203.574 262.502 204.248 262.096L205.154 262.897C205.758 263.377 206.664 263.377 207.258 262.737L208.386 261.616C208.99 260.975 208.99 260.014 208.537 259.374L207.862 258.413C208.235 257.698 208.617 256.897 208.839 256.096L209.896 255.936C210.651 255.861 211.255 255.135 211.255 254.335L211.336 252.658C211.336 251.783 210.732 251.057 209.906 250.897L208.93 250.811C208.698 249.936 208.406 249.21 208.023 248.42L208.698 247.619C209.151 246.979 209.151 246.018 208.628 245.388L207.5 244.192C206.896 243.552 205.99 243.477 205.386 244.032L204.631 244.673C203.876 244.192 203.121 243.872 202.295 243.637L202.215 242.516C202.144 241.715 201.46 241.075 200.634 241.075L199.054 241C198.228 241 197.544 241.641 197.473 242.516L197.322 243.552C196.497 243.797 195.742 244.107 194.987 244.587L194.161 243.872C193.557 243.317 192.651 243.391 192.057 243.947L190.93 245.142C190.325 245.783 190.325 246.744 190.779 247.384L191.453 248.345C191.081 249.06 190.779 249.861 190.547 250.662L189.43 250.843ZM199.748 248.922C202.084 248.922 203.886 250.918 203.886 253.31C203.886 255.786 201.933 257.698 199.668 257.698C197.403 257.698 195.53 255.701 195.601 253.224C195.611 250.843 197.483 248.847 199.748 248.922Z" fill="#E7E7E7"/>
<path d="M197.815 181.852L184.034 174.422L183.51 175.543L179.745 173.546V173.461L174.923 169.543L176.05 167.301L181.768 169.222L181.839 169.137L185.604 171.219L185 172.34L198.782 179.845L199.909 177.454C200.131 176.973 200.735 176.739 201.117 176.973L201.722 177.294C202.175 177.529 202.326 178.169 202.104 178.65L201.722 179.45L208.799 182.482C209.252 182.717 210.007 183.037 210.46 183.283L222.732 189.988C223.185 190.222 223.336 190.788 223.104 191.269L220.769 196.062C220.547 196.543 220.013 196.778 219.56 196.543L207.057 189.753C206.604 189.507 205.93 189.037 205.477 188.792L199.225 184.553L198.842 185.429C198.621 185.909 198.017 186.069 197.634 185.824L197.03 185.504C196.577 185.258 196.356 184.703 196.658 184.222L197.815 181.852Z" fill="#E7E7E7"/>
<path d="M120.319 235.116L120.55 235.511C120.923 236.152 121.527 236.707 122.131 237.112L119.121 256.436C118.366 256.596 117.691 256.917 117.087 257.397L116.715 257.717C114.228 259.949 113.624 263.867 115.587 266.824C116.191 267.625 116.866 268.265 117.691 268.735L118.668 262.511C118.748 262.191 118.819 261.87 119.05 261.635C119.423 260.92 120.258 260.515 121.084 260.675C121.688 260.76 122.141 261.07 122.514 261.55C122.584 261.785 122.735 262.031 122.816 262.265C122.896 262.586 122.896 262.906 122.816 263.226L121.839 269.45C122.745 269.29 123.651 268.97 124.477 268.329C127.185 266.258 127.869 262.34 126.138 259.383L125.906 258.988C125.453 258.273 124.93 257.792 124.326 257.312L127.336 238.063C128.01 237.828 128.765 237.582 129.369 237.102L129.671 236.781C132.228 234.55 132.762 230.557 130.879 227.675C130.275 226.874 129.52 226.159 128.775 225.764L127.799 231.988C127.728 232.308 127.577 232.543 127.416 232.863C126.963 233.504 126.208 233.984 125.312 233.824C124.789 233.664 124.255 233.344 123.953 232.863C123.802 232.703 123.732 232.468 123.651 232.148C123.571 231.913 123.571 231.593 123.571 231.187L124.547 224.963C123.641 225.123 122.816 225.518 121.99 226.159C119.272 228.166 118.587 232.169 120.319 235.116Z" fill="#E7E7E7"/>
<path d="M223.899 19.153L224.131 19.548C224.503 20.1886 225.107 20.7438 225.711 21.1495L222.701 40.4733C221.946 40.6335 221.271 40.9537 220.667 41.4342L220.295 41.7545C217.808 43.9858 217.204 47.9039 219.167 50.8612C219.771 51.6619 220.446 52.3025 221.271 52.7722L222.248 46.5481C222.328 46.2278 222.399 45.9075 222.631 45.6726C223.003 44.9573 223.839 44.5516 224.664 44.7118C225.268 44.7972 225.721 45.1068 226.094 45.5872C226.164 45.8221 226.315 46.0676 226.396 46.3025C226.476 46.6228 226.476 46.9431 226.396 47.2634L225.419 53.4876C226.325 53.3274 227.231 53.0071 228.057 52.3666C230.765 50.2954 231.449 46.3772 229.718 43.4199L229.486 43.0249C229.033 42.3096 228.51 41.8292 227.906 41.3488L230.916 22.0996C231.59 21.8648 232.345 21.6192 232.949 21.1388L233.251 20.8185C235.808 18.5872 236.342 14.5943 234.459 11.7118C233.855 10.911 233.1 10.1957 232.355 9.80071L231.379 16.0249C231.308 16.3452 231.157 16.5801 230.996 16.9004C230.543 17.5409 229.788 18.0214 228.892 17.8612C228.369 17.7011 227.835 17.3808 227.533 16.9004C227.382 16.7402 227.312 16.5054 227.231 16.1851C227.151 15.9502 227.151 15.6299 227.151 15.2242L228.127 9C227.221 9.16014 226.396 9.55517 225.57 10.1957C222.852 12.2029 222.167 16.2064 223.899 19.153Z" fill="#E7E7E7"/>
<path d="M166.708 42.8932C165.732 43.0534 164.977 43.8541 164.977 44.8897V46.9715C164.977 48.0071 165.651 48.8826 166.638 49.0427L168.067 49.2028C168.369 50.1637 168.671 51.0391 169.124 51.8399L168.218 53.121C167.544 53.9217 167.614 55.0427 168.299 55.8327L169.648 57.274C170.322 57.9893 171.46 58.0747 172.205 57.4342L173.332 56.5587C174.158 57.0391 175.064 57.4342 175.889 57.7544L176.04 59.2705C176.191 60.306 177.017 61.1068 177.993 61.1068H179.956C180.933 61.1922 181.758 60.3915 181.839 59.3452L182.06 57.8292C182.966 57.5943 183.943 57.274 184.769 56.7082L185.896 57.669C186.651 58.3096 187.708 58.2242 188.453 57.5089L189.812 56.0676C190.487 55.3523 190.638 54.1566 190.034 53.3559L189.228 52.2349C189.681 51.3594 190.134 50.3986 190.356 49.363L191.634 49.2028C192.611 49.1174 193.366 48.242 193.366 47.2064V45.1246C193.446 44.089 192.691 43.2028 191.715 43.1281L190.436 42.8932C190.215 41.9324 189.913 40.9822 189.379 40.0961L190.205 39.0605C190.809 38.2598 190.728 37.0641 190.054 36.3488L188.695 34.8327C188.02 34.1174 186.963 34.032 186.138 34.6726L185.232 35.4733C184.326 34.9181 183.42 34.4377 182.443 34.1174L182.292 32.8363C182.211 31.8754 181.386 31.0747 180.409 31H178.446C177.47 31 176.634 31.8007 176.483 32.7509L176.332 34.032C175.356 34.3523 174.379 34.7473 173.473 35.3132L172.497 34.5125C171.742 33.8719 170.614 33.8719 169.94 34.5979L168.51 36.1139C167.836 36.8292 167.755 37.9502 168.359 38.7509L169.185 39.9466C168.661 40.8221 168.279 41.7829 168.057 42.7438L166.708 42.8932ZM179.292 40.5765C182.081 40.5765 184.336 43.0534 184.336 46.0107C184.265 48.968 182 51.3594 179.211 51.3594C176.423 51.274 174.168 48.8826 174.168 45.8505C174.238 42.8932 176.503 40.5765 179.292 40.5765Z" fill="#E7E7E7"/>
<path d="M192.621 135.136C192.017 135.222 191.564 135.777 191.564 136.332V137.613C191.564 138.168 191.937 138.734 192.541 138.809L193.366 138.884C193.517 139.449 193.749 140.005 193.97 140.485L193.447 141.2C193.075 141.681 193.145 142.321 193.517 142.802L194.343 143.677C194.715 144.072 195.4 144.158 195.853 143.752L196.528 143.197C196.981 143.517 197.504 143.752 198.038 143.912L198.118 144.787C198.189 145.428 198.642 145.908 199.246 145.908H200.373C200.977 145.908 201.43 145.513 201.501 144.873L201.652 143.997C202.175 143.837 202.779 143.602 203.232 143.357L203.907 143.837C204.36 144.232 204.964 144.232 205.417 143.763L206.242 142.962C206.615 142.481 206.695 141.841 206.323 141.36L205.87 140.645C206.172 140.165 206.393 139.61 206.544 138.969L207.299 138.884C207.903 138.809 208.356 138.328 208.356 137.688V136.492C208.356 135.852 207.903 135.371 207.38 135.296L206.625 135.136C206.474 134.581 206.252 134.015 206.021 133.46L206.474 132.905C206.776 132.424 206.776 131.709 206.393 131.303L205.568 130.428C205.195 129.948 204.511 129.948 204.058 130.268L203.534 130.748C203.011 130.428 202.407 130.193 201.873 130.033L201.803 129.232C201.722 128.592 201.279 128.197 200.675 128.111H199.548C198.944 128.111 198.42 128.592 198.34 129.147L198.269 129.948C197.665 130.108 197.142 130.353 196.538 130.663L196.004 130.183C195.551 129.777 194.877 129.862 194.494 130.257L193.668 131.133C193.215 131.528 193.215 132.254 193.517 132.734L194.051 133.375C193.749 133.93 193.517 134.496 193.377 135.051L192.621 135.136ZM200.001 133.78C201.662 133.78 203.011 135.222 203.011 136.973C202.93 138.734 201.581 140.165 199.92 140.165C198.259 140.079 196.981 138.649 196.981 136.887C196.991 135.136 198.34 133.78 200.001 133.78Z" fill="#E7E7E7"/>
<path d="M121.527 142.726L118.436 148.555C117.762 148.16 117.158 147.839 116.624 147.434C115.114 146.558 114.137 145.832 114.067 145.042C113.614 144.957 113.161 144.797 112.788 144.562L111.963 144.167C111.51 143.847 111.137 143.366 110.906 142.886C110.835 142.811 110.755 142.726 110.604 142.726L110.302 142.491V142.416L110 142.181C109.849 142.021 109.627 141.861 109.476 141.701C109.476 141.701 109.406 141.626 109.325 141.541L109.174 141.38C108.953 141.146 108.802 140.985 108.651 140.74C108.429 140.494 108.198 140.185 108.047 139.939L107.976 139.779C107.896 139.694 107.825 139.544 107.825 139.459L107.594 139.064C107.443 138.743 107.372 138.509 107.292 138.263L107.221 138.103C107.141 137.868 107.07 137.622 107 137.388C107 137.388 107 137.313 107 137.227C107 137.153 106.929 137.153 106.929 137.067C106.929 136.992 106.929 136.907 106.929 136.747L106.849 136.427C106.849 136.341 106.849 136.267 106.849 136.192C106.778 136.032 106.778 135.872 106.778 135.711V134.836C106.778 134.59 107 134.355 107.231 134.281C107.382 134.281 107.453 134.281 107.604 134.355C107.674 134.441 107.755 134.516 107.835 134.59L108.137 135.391C108.208 135.476 108.208 135.551 108.288 135.626C108.369 135.701 108.369 135.786 108.439 135.861L108.59 136.106C108.59 136.192 108.59 136.192 108.671 136.267C108.671 136.267 108.671 136.267 108.741 136.341C108.741 136.427 108.822 136.427 108.892 136.501C108.963 136.662 109.043 136.736 109.114 136.822C109.194 136.907 109.194 136.907 109.265 136.982C109.335 137.057 109.486 137.217 109.567 137.302H109.637L109.859 137.537C109.939 137.537 110.01 137.622 110.01 137.622C110.09 137.708 110.09 137.708 110.161 137.783C110.312 137.868 110.463 137.943 110.694 138.017L110.765 138.103C110.845 138.103 110.986 138.178 111.137 138.263C111.218 138.263 111.218 138.263 111.288 138.338C111.369 138.338 111.439 138.338 111.51 138.423C111.661 138.423 111.731 138.509 111.882 138.509L112.114 138.583H112.416C112.486 138.669 112.567 138.669 112.637 138.669C112.718 138.669 112.718 138.669 112.788 138.669C112.859 138.669 112.859 138.669 112.939 138.669C112.939 138.669 113.01 138.669 113.09 138.669C113.161 138.509 113.241 138.348 113.312 138.274L116.473 132.199L118.053 127.085C118.053 127 118.134 126.925 118.134 126.839L124.909 113.985C125.664 112.544 127.396 111.989 128.745 112.79C130.104 113.665 130.627 115.427 129.872 116.868L123.017 129.722C123.017 129.882 122.936 129.957 122.866 130.128L119.624 133.96L116.382 140.11C116.312 140.195 116.231 140.27 116.231 140.345C116.312 140.42 116.382 140.505 116.453 140.58C117.057 140.259 118.416 140.9 119.845 141.701C120.399 142 121.003 142.32 121.527 142.726Z" fill="#E7E7E7"/>
<path d="M145.93 208.448C145.406 208.533 144.953 209.003 144.953 209.643L144.883 210.839C144.883 211.48 145.336 211.96 145.94 212.035L146.765 212.195C146.916 212.675 147.067 213.23 147.369 213.711L146.846 214.426C146.473 214.907 146.473 215.622 146.846 216.028L147.671 216.903C148.124 217.384 148.728 217.383 149.181 216.978L149.856 216.497C150.379 216.743 150.832 216.978 151.366 217.138L151.517 218.099C151.517 218.739 152.041 219.134 152.574 219.134L153.782 219.209C154.306 219.209 154.839 218.729 154.91 218.088L154.98 217.213C155.584 217.127 156.108 216.892 156.641 216.572L157.245 217.127C157.698 217.522 158.373 217.448 158.826 217.053L159.581 216.177C160.034 215.782 160.114 215.056 159.732 214.576L159.208 213.935C159.51 213.38 159.732 212.814 159.963 212.259L160.718 212.184C161.242 212.099 161.695 211.544 161.695 210.988V209.707C161.695 209.152 161.322 208.586 160.718 208.512L159.963 208.426C159.812 207.871 159.661 207.23 159.359 206.75L159.812 206.109C160.185 205.629 160.185 204.988 159.732 204.508L158.977 203.633C158.524 203.238 157.92 203.152 157.467 203.547L156.863 204.028C156.339 203.633 155.806 203.387 155.202 203.227L155.121 202.512C155.051 201.871 154.598 201.391 153.994 201.391H152.866C152.262 201.391 151.809 201.796 151.739 202.426L151.658 203.142C151.054 203.302 150.45 203.622 149.926 203.942L149.322 203.462C148.869 203.056 148.265 203.056 147.812 203.462L146.987 204.337C146.614 204.818 146.534 205.458 146.916 205.939L147.369 206.654C147.138 207.134 146.916 207.69 146.765 208.33L145.93 208.448ZM153.379 207.092C155.041 207.092 156.319 208.533 156.319 210.284C156.319 212.035 154.96 213.401 153.309 213.401C151.648 213.401 150.299 211.96 150.369 210.209C150.369 208.448 151.728 207.006 153.379 207.092Z" fill="#E7E7E7"/>
<path d="M58.0434 149.428C57.4393 149.514 56.9863 149.994 56.9863 150.624V151.82C56.9863 152.46 57.3689 153.015 57.9628 153.015L58.7883 153.176C58.9393 153.731 59.1608 154.211 59.3924 154.692L58.8689 155.407C58.4964 155.887 58.5669 156.603 58.9494 157.008L59.7749 157.884C60.1575 158.364 60.832 158.439 61.285 158.044L61.9595 157.489C62.4125 157.809 62.936 158.044 63.4696 158.204L63.5501 159.08C63.6206 159.72 64.0736 160.201 64.6776 160.201H65.8051C66.4091 160.201 66.8622 159.72 66.9326 159.165L67.0836 158.29C67.6071 158.129 68.2112 157.894 68.6642 157.574L69.3387 158.129C69.7917 158.535 70.3957 158.535 70.8487 158.055L71.6743 157.254C72.0467 156.773 72.1273 156.133 71.7548 155.578L71.3018 154.937C71.6038 154.382 71.8253 153.816 71.9763 153.261L72.7313 153.186C73.3353 153.101 73.7883 152.631 73.7883 151.991V150.795C73.7883 150.154 73.3353 149.674 72.8118 149.599L72.0568 149.439C71.9058 148.884 71.6843 148.329 71.4528 147.763L71.9058 147.208C72.2078 146.727 72.2078 146.012 71.8253 145.606L70.9997 144.731C70.6273 144.25 69.9427 144.25 69.4897 144.571L68.9662 145.051C68.4427 144.731 67.8387 144.411 67.3152 144.25L67.2347 143.535C67.1541 142.894 66.6306 142.414 66.1071 142.414H64.8991C64.3756 142.414 63.842 142.894 63.7716 143.45L63.7011 144.25C63.0971 144.411 62.493 144.645 61.9695 144.966L61.4461 144.485C60.993 144.09 60.3185 144.09 59.936 144.56L59.1105 145.435C58.6575 145.83 58.6575 146.471 58.9595 147.037L59.483 147.677C59.181 148.233 58.9595 148.798 58.8085 149.354L58.0434 149.428ZM65.4226 148.072C67.0836 148.072 68.4326 149.503 68.4326 151.265C68.3521 153.015 67.0031 154.457 65.342 154.382C63.681 154.382 62.4024 152.941 62.4024 151.19C62.4125 149.428 63.7716 148.072 65.4226 148.072Z" fill="#E7E7E7"/>
<path d="M57.9736 63.1782C57.4501 63.2636 56.9971 63.7333 56.9971 64.3739V65.5696C56.9971 66.2102 57.3796 66.6906 57.9736 66.7654L58.7991 66.9255C58.9501 67.4807 59.1716 67.9611 59.4031 68.4415L58.8796 69.1568C58.5071 69.6372 58.5071 70.3525 58.9602 70.7582L59.7857 71.6337C60.1682 72.1141 60.7622 72.1141 61.2957 71.7938L61.9702 71.2387C62.4232 71.559 62.9467 71.7938 63.4803 71.954L63.5608 72.8294C63.6313 73.47 64.0843 73.9504 64.6883 73.9504H65.8159C66.4199 73.9504 66.8729 73.47 66.9434 72.9148L67.0944 72.0394C67.6179 71.8792 68.1514 71.6337 68.6749 71.3241L69.3494 71.8792C69.8024 72.2849 70.4065 72.2849 70.8595 71.7938L71.685 70.9184C72.0575 70.5234 72.138 69.8828 71.7655 69.317L71.3125 68.6764C71.6145 68.1212 71.836 67.5554 71.987 67.0002L72.742 66.9148C73.3461 66.8294 73.7185 66.3597 73.7185 65.7191L73.7991 64.5234C73.7991 63.8828 73.3461 63.3276 72.742 63.3276L72.0675 63.1675C71.9165 62.6123 71.6951 62.0465 71.393 61.4913L71.9165 60.9362C72.2185 60.4557 72.2185 59.7404 71.836 59.3348L71.0105 58.4593C70.638 57.9789 69.9534 57.9041 69.5004 58.2992L68.9769 58.7796C68.4534 58.4593 67.8494 58.139 67.3259 57.9789L67.2454 57.2636C67.1649 56.623 66.6414 56.1426 66.1179 56.1426H64.9098C64.3863 56.1426 63.8528 56.623 63.7823 57.1782L63.7118 57.9789C63.1078 58.139 62.5038 58.3739 61.9803 58.6942L61.4568 58.2138C61.0038 57.8187 60.3293 57.8187 59.9467 58.2992L59.1212 59.0999C58.6682 59.5803 58.6682 60.2209 58.9702 60.776L59.4937 61.4166C59.1917 61.9718 58.9702 62.5376 58.8192 63.0928L57.9736 63.1782ZM65.4232 61.8223C67.0843 61.8223 68.4333 63.2636 68.3628 65.0145C68.3628 66.776 67.0038 68.2066 65.3528 68.1319C63.6917 68.1319 62.4132 66.6906 62.4132 64.9397C62.4132 63.1782 63.7722 61.8223 65.4232 61.8223Z" fill="#E7E7E7"/>
<path d="M36.4295 105.989C35.604 106.063 35 106.789 35 107.59V109.352C35 110.152 35.604 110.868 36.3591 111.028L37.5671 111.188C37.7181 111.903 38.0201 112.629 38.3926 113.344L37.6376 114.305C37.1141 114.946 37.1141 115.907 37.7181 116.537L38.8456 117.732C39.3691 118.373 40.2752 118.448 40.9497 117.892L41.8557 117.092C42.5302 117.572 43.2148 117.892 43.9597 118.127L44.1107 119.408C44.1812 120.209 44.8658 120.85 45.6208 120.85L47.2013 120.935C48.0268 120.935 48.7114 120.295 48.8624 119.419L48.943 118.223C49.7685 118.063 50.5235 117.743 51.2785 117.263L52.104 118.063C52.7785 118.618 53.6846 118.544 54.2081 117.978L55.3356 116.782C55.9396 116.142 56.0101 115.181 55.4866 114.551L54.8121 113.59C55.2651 112.875 55.5671 112.074 55.7886 111.273L56.8456 111.188C57.6711 111.028 58.2752 110.387 58.2752 109.512V107.836C58.2752 106.96 57.6711 106.234 56.9161 106.159L55.8591 105.999C55.7081 105.199 55.406 104.398 55.0336 103.683L55.6376 102.807C56.1611 102.167 56.0906 101.206 55.5571 100.576L54.4295 99.38C53.906 98.7395 53 98.7395 52.3255 99.2199L51.5705 99.8605C50.896 99.38 50.0604 99.0597 49.3054 98.8249L49.1544 97.7893C49.0738 96.9138 48.3993 96.2733 47.6443 96.2733H45.9832C45.2282 96.1879 44.5537 96.8284 44.4027 97.7145L44.3322 98.7501C43.5067 98.9957 42.6711 99.316 41.9262 99.7857L41.1711 99.0704C40.4966 98.59 39.5906 98.59 39.0671 99.2306L37.8591 100.352C37.3356 100.992 37.255 101.953 37.7886 102.583L38.3926 103.544C38.0201 104.259 37.7181 105.06 37.4866 105.86L36.4295 105.989ZM46.7483 104.067C49.0134 104.067 50.8859 106.063 50.8154 108.54C50.8154 110.942 48.9329 112.853 46.5973 112.853C44.3423 112.853 42.5302 110.857 42.5302 108.38C42.5302 105.989 44.4128 103.992 46.7483 104.067Z" fill="#E7E7E7"/>
<path fill-rule="evenodd" clip-rule="evenodd" d="M109.558 102.946C109.477 101.75 109.477 99.9887 109.628 99.2734C110.605 94.8855 109.024 90.3268 105.793 87.0492L103.759 96.6364C103.457 97.9175 102.249 98.7076 101.051 98.3873C99.8429 98.067 99.0879 96.7859 99.3194 95.5154C100.074 92.1631 100.9 88.8108 101.655 85.4585C102.108 83.2165 100.829 81.0599 98.7959 80.5047C96.6919 80.0243 94.5778 81.3802 94.1248 83.6222C93.3697 86.9745 92.6952 90.3375 91.9402 93.6898C91.6382 94.9709 90.4301 95.7716 89.2322 95.5261C88.0241 95.2058 87.2791 93.9246 87.5711 92.6542L89.6046 83.3873C89.6852 83.3019 83.1315 85.3837 81.551 92.3339C81.4805 92.9745 80.7254 94.4157 80.0409 95.6862L78.6818 95.2912C78.0073 95.131 77.3228 95.6115 77.1718 96.3268C76.9503 97.1275 77.3932 97.8428 78.0778 98.0029L110.232 105.989C110.907 106.149 111.591 105.668 111.742 104.953C111.893 104.238 111.521 103.437 110.836 103.277L109.558 102.946Z" fill="#E7E7E7"/>
<path fill-rule="evenodd" clip-rule="evenodd" d="M74.4434 36.5378C74.3629 35.3421 74.3629 33.5805 74.5139 32.8652C75.4904 28.4773 73.9098 23.9186 70.6783 20.641L68.6447 30.2282C68.3427 31.5093 67.1347 32.2994 65.9367 31.9791C64.7286 31.6588 63.9736 30.3776 64.2052 29.1072C64.9602 25.7549 65.7857 22.4026 66.5407 19.0502C66.9937 16.8083 65.7152 14.6517 63.6817 14.0965C61.5776 13.6161 59.4635 14.972 59.0105 17.2139C58.2555 20.5663 57.581 23.9293 56.826 27.2816C56.5239 28.5627 55.3159 29.3634 54.1179 29.1179C52.9098 28.7976 52.1649 27.5164 52.4568 26.246L54.4904 16.9791C54.5709 16.8937 48.0172 18.9755 46.4367 25.9257C46.3662 26.5663 45.6112 28.0075 44.9266 29.278L43.5676 28.883C42.8931 28.7228 42.2085 29.2033 42.0575 29.9186C41.836 30.7193 42.279 31.4346 42.9635 31.5947L75.1179 39.5805C75.7924 39.7406 76.477 39.2602 76.628 38.5449C76.779 37.8296 76.4065 37.0289 75.7219 36.8687L74.4434 36.5378Z" fill="#E7E7E7"/>
<path fill-rule="evenodd" clip-rule="evenodd" d="M80.7852 233.119C80.7852 231.923 80.7147 230.162 80.8657 229.447C81.8422 225.048 80.2617 220.5 77.1006 217.233L74.9966 226.82C74.6945 228.101 73.4865 228.902 72.2885 228.582C71.0805 228.261 70.3355 226.98 70.6375 225.71C71.312 222.358 72.1476 219.005 72.8925 215.642C73.3456 213.411 72.067 211.254 70.0335 210.689C67.9294 210.208 65.8959 211.564 65.3623 213.721C64.6073 217.073 63.9328 220.511 63.1778 223.863C62.9563 225.144 61.7482 225.945 60.5402 225.699C59.3321 225.379 58.5872 224.098 58.8086 222.827L60.8422 213.56C60.9932 213.475 54.369 215.557 52.859 222.507C52.708 223.148 51.9529 224.589 51.2784 225.785L49.9194 225.464C49.2449 225.304 48.5603 225.785 48.4093 226.5C48.2583 227.301 48.6308 228.016 49.3154 228.176L81.4697 236.162C82.1442 236.322 82.8288 235.842 83.0503 235.126C83.2013 234.326 82.7482 233.61 82.0737 233.45L80.7852 233.119Z" fill="#E7E7E7"/>
</svg>
